<?xml version="1.0" encoding="utf-8"?>
<!-- Generator: Adobe Illustrator 27.5.0, SVG Export Plug-In . SVG Version: 6.00 Build 0)  -->
<svg version="1.1" xmlns="http://www.w3.org/2000/svg" xmlns:xlink="http://www.w3.org/1999/xlink" x="0px" y="0px"
	 viewBox="0 0 1000 1000" style="enable-background:new 0 0 1000 1000;" xml:space="preserve">
<g id="Object">
	<g>
		<path style="fill:#2887ca;" d="M405.779,645.741v-0.003c-0.134-0.73-0.54-1.208-1-1.406c0.299,0.654,0.599,1.307,0.898,1.961
			C405.726,646.122,405.764,645.942,405.779,645.741z"/>
		<path style="fill:#2887ca;" d="M403.055,645.72c0.124-1.301,0.992-1.704,1.725-1.388
			c-40.501-88.479-79.836-179.506-107.636-271.593c0.362,4.463-14.491,7.365-4.607,0.202c0.427-0.037,0.584-0.312,0.584-0.738
			c0.264-0.368,2.614-3.004,3.4-1.478c-0.65-1.992-1.436-3.941-2.173-5.901c-9.813,4.074-17.729,7.525-25.71,14.752
			c-2.088,1.893-15.148,19.835-19.309,17.354c-7.123-4.229,38.143-32.25,43.921-35.03c-0.745-1.978-1.473-3.919-2.191-5.837
			c-0.831-0.171-2.207-1.891-0.881-2.37c-0.78-2.189-22.11-61.557-16.952-62.739c1.702-0.394,19.141,62.353,20.965,64.603
			c-0.037,0.024-0.075,0.053-0.112,0.08c0.597,1.702,1.201,3.419,1.816,5.174c0.253-0.045,0.5-0.075,0.748-0.096
			c-8.141-26.189-13.549-52.54-18.925-79.395c-0.972,3.557-0.777,5.935-0.777,5.935c-26.104,4.78-61.783,15.445-63.45,47.14
			c11.291,28.761,28.45,55.198,42.385,82.673c16.501,32.534,31.447,65.865,48.032,98.338
			c26.037,50.991,54.269,100.389,83.86,149.279c5.595-0.12,5.578,2.508,4.774,7.144c-0.208,0.037-0.415,0.056-0.62,0.08
			c1.826,3.246,3.635,6.503,5.467,9.746c0.439-0.615,0.881-1.23,1.32-1.848c-0.019-1.289-0.037-2.577-0.053-3.866
			c0.633-1.294,1.272-2.588,1.906-3.88c-16.553-31.573-34.031-62.547-49.073-94.911c-0.802-0.306-1.605-0.612-2.407-0.916
			c-0.7-1.813-1.4-3.624-2.099-5.435c0.698,1.811,1.398,3.622,2.099,5.432c0.802,0.306,1.605,0.613,2.407,0.919
			c-2.189-4.735-17.045-41.99-15.154-42.568c0.463-0.146,61.234,125.811,64.525,132.394c0.89-2.248,3.126-3.129,5.249-4.128
			c0.051-1.411,0.729-2.562,2.039-3.456c3.776-0.122,7.228,12.845,7.376,14.523c-1.275,0.024-2.551,0.048-3.829,0.069
			c0.017,0.013,0.032,0.029,0.046,0.045c-0.014-0.016-0.029-0.032-0.046-0.045c-0.609-0.613-1.225-1.225-1.834-1.837
			c-2.141-0.021-4.285-0.042-6.426-0.064c8.346,16.11,18.374,31.347,27.311,47.135c0.306-0.099,2.369-1.254,2.468-1.345
			c0.466-0.112,0.649-0.434,0.645-0.9c1.177-0.887,1.992-1.664,3.315-2.551c-10.452-22.521-21.011-45.241-31.496-68.131
			C405.149,648.162,402.818,648.189,403.055,645.72z M273.819,353.122c-0.258,0.176,7.89-5.374,7.182-0.695
			c-1.672,2.751-4.127,3.382-7.368,1.891c2.347,2.961,3.055,6.068,2.128,9.323c-5.307,3.882-7.405-8.17-7.397-9.014
			C269.817,353.228,271.636,352.728,273.819,353.122z M258.447,348.215c1.629,0.514,1.624,1.302-0.014,2.367
			C256.722,350.137,256.725,349.349,258.447,348.215z M244.797,352.97c-2.016-1.707-2.002-2.687,0.043-2.94
			C247.383,351.588,247.367,352.568,244.797,352.97z M288.992,395c-5.51,2.077-1.15-5.203-1.055-4.769
			C287.848,389.816,295.905,392.378,288.992,395z M310.215,471.102c-9.056-3.206,1.824-6.7,1.638-5.749
			C311.903,465.089,317.311,473.61,310.215,471.102z M329.167,520.854c-1.894,4.141-5.773,6.037-8.449,8.353
			C308.554,526.827,332.093,514.482,329.167,520.854z"/>
		<path style="fill:#2887ca;" d="M398.656,675.943c1.35,0.482,2.423,1.243,3.128,2.378c0.234,0.378,0.429,0.799,0.578,1.265
			c-0.623,2.482-1.246,4.961-1.872,7.443c6.807,11.588,13.134,23.443,20.578,34.646c2.56-0.482,5.186-1.995,7.773-1.744
			c-9.08-16.158-19.681-31.443-28.279-47.867C399.929,673.354,399.292,674.649,398.656,675.943z"/>
		<path style="fill:#2887ca;" d="M421.394,777.29c-16.395-4.202-35.123-9.046-48.037-20.448c0.264,0.738,0.527,1.475,0.788,2.21
			l-0.002,0.003c-0.262-0.74-0.525-1.478-0.789-2.216c-1.132-0.998-2.295-2.088-3.158-3.336l-10.989-2.048
			c-6.673,7.469,4.085,32.257,8.212,40.88c14.641,8.622,32.193,12.869,49.124,12.944c15.261,0.067,31.017-7.749,46.024-2.706
			c-12.744-11.059-21.574-18.152-37.495-24.032C424.197,780.393,419.559,779.237,421.394,777.29z M359.044,755.476
			c-2.163-0.812,0.236-2.159,0.56-2.413h0.002C358.953,752.374,364.09,757.351,359.044,755.476z M397.346,802.156
			c0.432-0.314,1.126-0.562,1.225-0.958C398.472,801.594,397.777,801.842,397.346,802.156z M450.903,795.896
			c0.023,1.143-1.367,1.626-3.786,1.608c-9.774,0.949-35.378-2.813-38.79-3.792c1.781,2.085-0.591,6.974-2.561,7.693
			c-2.762,0.999-2.373-7.773-0.477-8.729c0.362,0.093-38.827-11.005-34.138-17.782c0.543-0.785,4.367,1.758,4.802,2.003
			c3.317,1.68,56.397,20.497,71.164,20.608C449.472,797.275,450.919,796.776,450.903,795.896z M439.595,789.009
			c-0.789,2.247-55.206-6.186-51.196-13.136c-0.344,0.599,22.557,6.157,22.991,6.098l0.066-0.05c1.443-0.08,2.389,0.44,2.828,1.558
			C417.45,784.174,440.644,786.027,439.595,789.009z"/>
		<path style="fill:#2887ca;" d="M450.903,795.896c0.016,0.881-1.432,1.38-3.786,1.608
			C449.536,797.522,450.927,797.039,450.903,795.896z"/>
		<path style="fill:#2887ca;" d="M409.171,782.179c0.765,0.13,1.571,0.208,2.319,0.413c-0.031-0.208-0.061-0.415-0.101-0.621
			C410.662,782.07,409.92,782.126,409.171,782.179z"/>
		<path style="fill:#2887ca;" d="M376.586,745.475c0.464-0.999,49.159,21.532,55.183,24.991
			c-17.396-16.813-35.626-32.766-53.286-49.22c-3.741-3.515-7.64-6.859-11.479-10.271c-0.857,8.926-2.919,28.657-4.985,35.323
			c1.763-1.667,3.693-1.555,4.716,0.831c4.722-0.703,5.656,0.663,5.601,4.969c21.547,15.958,47.752,20.672,71.707,31.72
			c-1.904-2.224-3.797-4.46-5.751-6.646C431.776,774.393,374.885,749.133,376.586,745.475z M369.022,727.176
			c0.423-0.306,0.956-0.471,1.443-0.69c0.01-0.016,0.019-0.035,0.026-0.053c0,0,0.019,0.013,0.029,0.018v0.011
			c-0.018,0.008-0.037,0.016-0.056,0.024C368.795,729.996,369.333,726.95,369.022,727.176z M372.618,729.503
			c-0.221-0.162-0.316,0.184-0.497-0.149c-0.094-0.067-0.197-0.109-0.313-0.133c-0.921,0.2,0.029-0.338-0.409-0.338
			c-0.147-0.202-0.341,0.003-0.458,0.176c-0.043-0.04-0.091-0.064-0.145-0.091c-0.09,0.011-0.865,0.437-1.217,0.141
			c-0.565-0.189,0.748-2.575,1.244-2.482c0.895,0.927,0.727-0.216,1.512,0.059c0.389-0.04,0.645-0.181,1.292-0.341
			c1.025,0.242,0.378,3.435-0.799,3.533C372.28,729.913,372.845,729.932,372.618,729.503z M373.221,737.649
			c0.519-1.443,3.855-0.495,4.873-0.082c0.873-1.997,1.938-3.898,3.197-5.704c2.16,0.33,3.132,1.779,3.499,3.771
			c0.563,1.925,0.293,3.451-0.804,4.572c4.351,1.289,38.483,14.808,33.604,20.836c0.169-0.208-30.119-17.913-35.506-18.853
			c-0.407,0.397-0.817,0.794-1.217,1.198c-1.869-1.432-2.857-2.223-3.222-3.014C376.797,740.037,372.646,739.241,373.221,737.649z"
			/>
		<path style="fill:#2887ca;" d="M433.766,205.039c-2.893,2.309-4.228,3.842-4.228,3.842s-2.043,0.21-5.483,0.628
			c0.373,4.143,0.794,8.281,1.26,12.414c2.854,29.693,4.54,59.594,6.689,89.351c1.566-0.072,3.119,0.045,4.682-0.093
			C436.247,275.82,431.101,240.474,433.766,205.039z"/>
		<path style="fill:#2887ca;" d="M476.445,719.994c0.399,2.351,0.788,4.702,1.137,7.054c1.15-1.233,1.566-2.754,1.516-4.45
			C478.277,721.533,477.407,720.625,476.445,719.994z"/>
		<path style="fill:#2887ca;" d="M487.607,787.308c-0.266-0.072-1.339-76.277-1.608-84.044c-3.802-0.69-8.351,1.435-11.916,2.852
			c0.799,4.626,1.587,9.251,2.362,13.876c1.877,2.109,4.031,3.888,6.46,5.339c0.099-0.671-1.265,10.313-4.665,6.628
			c0.253,2.133,0.487,4.266,0.703,6.399c1.129-0.319,3.738,0.216,3.738,1.797c0,2.029-2.447,1.273-3.456,0.953
			c2.532,24.767,6.505,48.408,14.888,71.862c0.045,0,0.088,0,0.133-0.003c0.253-1.302,0.522-2.599,0.799-3.893
			c-3.126-15.322-4.178-31.586-4.852-47.183C490.084,763.633,488.183,787.47,487.607,787.308z M485.038,747.394
			c-0.495-0.479-0.441-0.884,0.162-1.211c0.123,0.221,0.243,0.445,0.392,0.711C485.414,747.054,485.228,747.224,485.038,747.394z"/>
		<path style="fill:#2887ca;" d="M489.453,722.678c0.37-6.599,0.759-13.189,1.228-19.78c-0.884,0.093-1.784,0.192-2.671,0.25
			C488.244,709.667,488.921,716.178,489.453,722.678z"/>
		<path style="fill:#2887ca;" d="M416.226,623.264l-0.003-0.003c0.738-2.184,2.301-2.365,4.053-1.797
			c-0.514-2.021-1.033-4.042-1.539-6.066c-1.869,0.069-2.396-4.202-2.49-5.102c0.362-0.33,0.661-0.684,0.908-1.057
			c-0.543-2.12-1.113-4.228-1.707-6.335c-1.012-0.666-2.122-1.023-3.39-0.908c1.268-0.115,2.378,0.242,3.39,0.908
			c-3.197-11.69-6.867-23.321-9.103-35.248c-5.499,1.915-6.575-9.152-1.726-9.53c-4.802-27.84-12.068-56.242-18.901-83.736
			c-3.373,1.414-9.399-0.093-12.689-0.354c-0.367,9.163,13.194,27.994-4.796,16.544c-11.645-7.413-8.952-17.37,5.201-19.151
			c2.993-2.791,6.364-4.9,10.116-6.324c-5.339-22.469-10.681-45.122-15.447-67.743c-5.522-1.116-10.71-9.658-2.373-10.59
			c-0.889-3.393-7.227-33.256-3.942-33.754c1.685-0.261,6.414,28.58,7.287,32.316c0.535-0.37,1.068-0.738,1.604-1.103
			c-3.382-16.781-5.065-33.874-8.535-50.599c-9.383,1.635-17.255,2.293-25.76,7.046c-2.016,1.126-18.403,17.223-22.527,13.421
			c-5.659-5.206,41.455-23.646,47.55-23.931c-6.292-29.416-13.41-58.635-21.315-87.65c-0.738,1.51-1.031,2.442-1.031,2.442
			s-0.242,0.046-0.682,0.133c1.491,8.284,21.798,83.048,16.22,84.026c-0.745,0.133-17.095-74.535-18.914-83.432
			c-5.784,1.352-18.334,4.716-32.266,11.157c3.98,10.699-10.872,23.851-14.385,8.281c-5.277,4.202-8.268,8.617-9.951,12.393
			c5.757,23.364,11.37,46.706,20.451,69.087c-0.432-1.579-21.122-65.7-18.403-66.129c2.844-0.458,22.408,72.725,24.572,79.15
			c2.631,0.115,5.169,1.904,1.188,3.185c3.089,7.347,44.515,110.452,41.984,111.394c-2.716,1.031-29.965-71.146-30.895-73.555
			c7.103,20.094,15.112,39.892,21.447,60.247c0.17-0.059,0.341-0.115,0.521-0.157c3.185,0.884,3.519,2.546,0.999,4.982
			c14.142,44.581,35.093,86.478,50.727,130.468c16.348,46.008,36.403,93.311,57.695,137.266
			c-15.159-37.775-27.877-76.53-41.505-114.877c-1.531,0.714-3.103,1.073-4.714,1.07c1.334-0.887,2.817-1.491,4.45-1.808
			c-1.289-3.632-38.739-115.838-34.244-116.685c0.613-0.119,20.568,59.945,41.85,122.723c0.34-0.206,0.679-0.412,1.017-0.616
			H416.226z M335.88,307.905c3.118,2.636,3.021,4.348-0.285,5.139C333.646,311.132,333.741,309.42,335.88,307.905z M328.309,250.55
			l-0.236,1.425l-1.081-0.967L328.309,250.55z M354.897,347.813c-1.097,2.303-25.318,12.627-22.552,7.315
			C334.633,350.736,356.471,344.404,354.897,347.813z"/>
		<path style="fill:#2887ca;" d="M415.066,623.964c0.048-0.024,0.096-0.048,0.144-0.072c-0.001-0.004-0.003-0.008-0.004-0.012
			C415.159,623.908,415.113,623.936,415.066,623.964z"/>
		<path style="fill:#2887ca;" d="M448.542,712.176c-9.036-29.107-19.836-58.439-27.537-87.863c-1.651,0.131-3.222-0.192-4.708-0.967
			c-0.362,0.184-0.725,0.365-1.087,0.546c20.662,60.951,42.572,124.457,49.242,137.924c1.198-1.781,3.797,1.832,1.433,2.868
			c3.192,6.356,6.585,12.587,10.465,18.557c-8.836-22.815-19.295-45.556-27.039-68.714
			C448.251,713.917,447.801,713.217,448.542,712.176z"/>
		<path style="fill:#2887ca;" d="M369.725,388.069c5.797,25.627,9.788,51.691,15.963,77.209c0.37,0.128,0.73,0.309,1.084,0.549
			c-3.704-25.899-10.226-51.984-15.312-77.68C370.885,388.149,370.305,388.125,369.725,388.069z"/>
		<path style="fill:#2887ca;" d="M387.629,473.011c0.003,0.005,0.003,0.013,0.006,0.021c0-0.008-0.003-0.018-0.003-0.018
			S387.629,473.008,387.629,473.011z"/>
		<path style="fill:#2887ca;" d="M451.826,609.208c-0.09-0.052-0.183-0.11-0.281-0.174
			C451.638,609.098,451.731,609.155,451.826,609.208z"/>
		<path style="fill:#2887ca;" d="M477.252,762.264c-4.378-18.533-9.775-36.801-14.265-55.307c-0.341-0.306-0.432-0.701-0.277-1.18
			c-8.843-38.031-19.465-75.646-28.548-113.633c-0.98-4.098-22.773-107.049-17.09-106.862
			c0.804,0.024,22.072,114.385,23.254,119.399c7.866,33.312,16.462,66.443,24.145,99.792c0.535-0.335,0.913-0.53,1.55-0.482
			c-7.752-30.559-9.56-63.29-13.735-94.557c-0.13-0.046-0.287-0.125-0.459-0.225c-0.095-0.053-0.189-0.11-0.281-0.174
			c-2.142-1.413-6.086-5.689-1.698-6.032c0.074,1.457,0.145,2.913,0.221,4.372c0.436,0.73,0.935,1.283,1.477,1.659
			c0.099,0.065,0.191,0.122,0.281,0.174c0.15,0.084,0.302,0.169,0.459,0.225c-6.343-47.531-8.995-97.385-10.438-145.26
			c-1.496-49.59-5.24-99.689-5.148-149.337c-1.485,0.213-2.939,0.056-4.434,0.037c0.182,2.269,0.362,4.578,0.541,6.91
			c3.123-0.418,2.964,2.692,0.274,3.581c1.396,18.416,8.14,183.887,8.822,183.951c-4.219-0.397-10.343-168.011-11.723-183.592
			c-4.284-0.066-35.836,11.038-34.502,4.535c0.609-2.977,29.843-7.786,34.186-8.124c-0.231-2.535-0.455-5.07-0.668-7.605
			c-8.804-0.905-55.901,19.769-58.497,14.547c-1.912-3.818,50.74-17.886,58.209-17.931c-2.822-33.411-8.092-67.769-6.838-101.39
			c-1.188,0.149-2.52,0.322-3.923,0.511l0.003,0.027c-0.021-0.008-0.037-0.013-0.037-0.013
			c-25.314,3.374-62.812,5.512-77.052,30.401c8.11,29.898,16.821,59.954,23.486,90.204c0.266,0.357,0.349,0.73,0.245,1.118
			c27.581,126.091,49.017,253.55,91.486,375.838c7.118-2.048,6.511,0.269,0.876,2.522c2.956,8.449,5.736,16.952,8.589,25.435
			c1.27-0.604,2.638-0.919,4.087-1.009c-1.071,1.201-2.325,1.856-3.755,2.013c4.833,14.294,11.29,54.237,17.768,60.63
			c0.251,0.884,2.435,8.526,3.004,8.646c0.996,2.178,1.907,4.394,2.679,6.681c0.821,0.106,1.648,0.178,2.487,0.213
			c-0.242-0.61-0.477-1.225-0.711-1.837C491.783,800.981,480.253,774.971,477.252,762.264z M441.527,596.726
			c0.759-2.58,5.152,1.584,1.406,2.969C441.834,599.21,441.184,597.885,441.527,596.726z M437.501,486.999
			c0.429,0.176,0.857,0.352,1.284,0.527C438.151,489.11,436.889,488.583,437.501,486.999z M434.444,565.063
			c1.113-0.778,1.992-0.357,2.634,1.257c-0.549,0.863-1.103,1.725-1.651,2.583C433.348,567.706,433.018,566.426,434.444,565.063z
			 M399.156,272.129c0.615-0.517,1.223-1.315,1.846-1.694c1.211-0.602,2.264-0.082,3.155,1.56c-3.18,2.756-2.213,2.407-5.001,0.139
			l0.003-0.003L399.156,272.129z M397.966,290.048c1.284-1.654,2.319-1.188,3.105,1.395
			C400.387,292.183,397.093,294.026,397.966,290.048z M354.341,264.679c-6.684,1.744-0.7-6.231-0.751-6.694
			C353.644,258.482,362.321,262.596,354.341,264.679z M406.386,362.935c1.388,2.383,1.193,4.242-0.586,5.576
			c-2.998,0.548-3.089-6.282-3.16-7.448C403.889,361.686,405.14,362.309,406.386,362.935z M400.791,416.772
			c1.05,1.238,1.608,2.631,1.678,4.173C399.175,419.762,399.127,419.645,400.791,416.772z M406.168,407.5
			c-1.332,2.649-8.233-0.434-6.591-2.053C400.197,404.84,407.901,404.033,406.168,407.5z M405.81,394.148
			c1.124-2.37,2.52-2.33,4.192,0.12C408.844,396.598,407.445,396.558,405.81,394.148z M410.815,472.02
			c3.107,0.535,5.44,2.106,6.995,4.719c-0.876,0.543-1.733,1.507-2.628,1.537C410.117,478.451,403.521,475.418,410.815,472.02z
			 M445.753,665.534c-0.136-0.122-0.021-0.527-0.021-0.815C447.825,663.952,446.297,666.021,445.753,665.534z M447.141,650.555
			c-0.806,0.191-1.299,0.048-1.514-0.388c-0.002,0.001-0.003,0.001-0.004,0.002c0.008,0.021-0.099-0.232-0.099-0.232
			c0.02,0.092,0.065,0.156,0.103,0.23C446.998,649.403,447.503,649.531,447.141,650.555z"/>
		<path style="fill:#2887ca;" d="M445.623,650.169c0.001-0.001,0.002-0.001,0.004-0.002c-0.037-0.074-0.083-0.138-0.103-0.23
			C445.524,649.938,445.631,650.19,445.623,650.169z"/>
		<path style="fill:#2887ca;" d="M376.85,706.318c-9.102-10.486-18.544-20.922-26.699-32.172c-0.416-0.075-0.832-0.149-1.247-0.227
			c-0.069-0.588-0.271-1.254-0.244-1.832c-30.495-42.456-61.528-83.893-90.454-127.39c-0.256,0.25-0.512,0.501-0.765,0.748
			c-0.472-0.637-1.23-2.29,0.315-1.419c-20.935-31.901-40.982-64.323-62.54-95.771c-4.079,2.527-3.387-1.201-2.494-3.651
			c-9.784-14.243-22.39-28.926-29.052-44.917c-21.423,9.195-37.695,43.66-27.172,65.466c0,0-0.051,0.093-0.133,0.256
			c8.355,15.724,21.278,31.185,32.891,44.645c1.318-0.538,1.955,0.876,1.681,1.938c22.397,25.598,44.027,51.358,68.435,75.1
			c0.168-0.069,0.336-0.138,0.477-0.215c0.968,0.426,1.441,1.076,1.414,1.949c12.9,11.86,27.369,22.025,40.633,33.517
			c0.026-0.615,0.114-1.398,0.242-2.399c3.735-0.242,3.735-0.242,4.787,3.286c-0.947,0.453-1.946,0.738-3.001,0.86
			c3.087,2.644,6.136,5.331,9.15,8.063c0.668,0.141,1.288,0.551,1.866,1.201c3.531-0.181,6.119,1.321,7.762,4.505
			c3.05,2.341,3.396,2.881,1.443,4.25c3.638,3.206,7.15,6.556,10.687,9.874c1.608-1.015,3.291-1.885,5.049-2.612
			c0.13,0.133-46.629-48.051-42.049-51.542C277.886,597.786,367.08,696.212,376.85,706.318z M249.941,550.063
			c0.85,0.405,0.552,1.023-0.298,0.623C249.742,550.478,249.844,550.27,249.941,550.063z M240.867,524.989
			c1.302-0.098,2.229,0.517,2.441,1.931C241.114,529.45,239.399,525.096,240.867,524.989z M192.664,463.904
			c1.664-0.919,53.886,90.054,53.886,90.054C244.92,554.832,187.714,466.609,192.664,463.904z M157.693,487.033
			c-6.489,2.753-9.837-11.144-5.06-14.195C158.287,469.211,163.186,484.701,157.693,487.033z M161.408,461.683
			c-6.947-1.856,2.399-6.167,2.127-5.432C163.602,456.075,167.652,463.363,161.408,461.683z M252.28,583.127
			c-1.593,0.988-3.138,0.892-4.637-0.296C247.386,579.189,255.076,581.628,252.28,583.127z M176.259,464.442
			c-3.587,6.569-3.345,41.245-7.067,42.478c-6.929,2.314,2.865-40.1,5.435-45.431c-1.483-2.729-26.082-47.966-21.393-49.726
			c0.722-0.272,21.611,42.815,23.238,45.944c0.578-1.31,9.046-10.667,10.699-8.199c1.523,2.255-7.647,9.802-8.981,11.493
			c5.741,10.681,76.202,124.946,80.54,122.043C251.838,587.702,182.527,475.631,176.259,464.442z M257.598,561.769
			c-0.53,0.176-1.065,0.322-1.605,0.442l-0.003,0.003c-1.388-1.163-2.78-2.327-4.167-3.499c-1.889,0.44-3.779,0.884-5.667,1.329
			c1.888-0.445,3.778-0.889,5.667-1.334c2.771-3.819,3.025-3.872,5.791-1.201c0.618,0.434,1.212,0.895,1.784,1.385
			C258.796,559.846,258.196,560.807,257.598,561.769z M263.137,560.868c0.737,1.379,1.478,2.761,2.215,4.143
			C264.614,563.63,263.874,562.248,263.137,560.868z"/>
		<path style="fill:#2887ca;" d="M320.92,652.997c-0.011,0.304-0.149,0.602-0.229,0.903c-1.18,0.442-2.292,0.655-3.286,0.471
			c5.146,4.737,10.441,9.32,15.685,13.948c0.237-0.027,0.477-0.045,0.722-0.037c0.026-0.048,0.053-0.096,0.08-0.144l0.123,0.133
			c-0.07-0.003-0.137,0.01-0.203,0.01c-0.088,0.149-0.173,0.301-0.259,0.45c6.312,5.581,12.867,10.702,19.396,16.009
			c-10.798-11.237-21.111-22.924-31.9-34.159C321.207,651.322,320.949,652.22,320.92,652.997z"/>
		<path style="fill:#2887ca;" d="M537.208,744.269c0.373-0.791,0.732-1.587,1.101-2.381c-0.049-0.008-0.097-0.019-0.144-0.027
			C537.845,742.666,537.528,743.467,537.208,744.269z"/>
		<path style="fill:#2887ca;" d="M541.304,734.006c0.179,0.069,0.327,0.173,0.444,0.309c2.698-6.05,5.223-12.158,8.088-18.136
			c-0.615-0.229-1.01-0.29-1.443-0.754C546.174,721.68,543.78,727.852,541.304,734.006z"/>
		<path style="fill:#2887ca;" d="M565.727,711.598c-0.594,0.604-1.188,1.209-1.781,1.814c0.056-0.631,0.234-1.145,0.54-1.534
			c-1.936,0.503-4.151,0.908-6.111,1.273c-0.005,0.802-0.042,1.619-0.069,2.431c-0.993-0.41-1.763-0.99-2.327-1.758
			c-0.213-0.17-0.426-0.341-0.639-0.511c0.067-0.053,0.133-0.112,0.199-0.168c-0.031-0.069-0.056-0.144-0.085-0.216
			c-0.253-0.077-0.506-0.146-0.762-0.208c-3.866,7.754-7.658,15.548-11.572,23.276c3.118,4.175,1.949,5.768-3.081,6.087
			c-7.528,14.872-15.159,29.802-23.021,44.507c6.572-9.158,13.783-17.884,19.958-27.313c-1.057-1.265-0.663-2.295,1.183-3.094
			c0.184,0.067,0.437,0.149,0.716,0.245c9.93-14.664,20.419-29.339,29.315-44.677C567.176,711.537,566.798,711.396,565.727,711.598z
			"/>
		<path style="fill:#2887ca;" d="M230.833,413.896c-2.468,1.185-4.343,1.75-6.332,3.842c0.261,0.458,0.519,0.919,0.775,1.384
			c3.064,0.506,6.148,1.246,9.213,2.216c-0.714-1.443-1.406-2.836-2.066-4.17C231.877,416.045,231.331,414.918,230.833,413.896z"/>
		<path style="fill:#2887ca;" d="M348.837,617.565c-1.254-1.041-1.896-2.253-1.925-3.64c0.196,0.088,0.391,0.173,0.588,0.258
			c-23.684-47.643-47.689-94.789-70.637-142.872c-21.055-44.113-45.532-88.848-63.669-134.22
			c-2.441,0.666-21.007,6.226-36.102,24.708c1.32,7.725,31.12,56.982,27.857,58.897c-2.104,1.241-28.54-49.627-30.041-56.069
			c-3.806,5.198-6.284,10.172-7.864,14.648c2.813,6.031,29.534,50.645,26.732,52.604c-2.979,2.088-24.948-43.191-27.763-49.324
			c-2.729,9.903-1.161,16.661-1.161,16.661s-0.042,0.016-0.104,0.037c7.424,15.601,18.911,30.066,28.924,44.078
			c9.919-10.14,10.398-23.26,24.011-30.998c-0.933-2.268-7.589-15.668-5.65-16.589c1.283-0.618,8.303,13.511,9.197,15.599
			c0.724,0.181,1.078,1.243,0.82,1.872c0.301,0.642,0.628,1.267,0.969,1.89c1.729-2.237,3.664-3.28,6.116-4.495
			c-1.786-3.323-16.408-34.494-13.016-35.727c1.348-0.501,14.422,30.641,16.315,34.313c1.166-0.032,1.558,1.339,1.126,2.232
			c1.83,3.832,3.59,7.693,5.456,11.509c2.988,1.201,20.027,9.389,6.17,12.233c5.632,10.542,56.05,101.172,57.771,100.232
			c-4.905,2.7-56.455-91.399-61.714-101.161c-3.18-1.627-6.466-2.881-9.829-3.861c3.851,7.437,55.18,101.174,54.523,101.473
			c-2.458,1.132-54.777-94.762-59.06-102.644c-3.741-0.416-7.41-1.142-11.014-2.181c-0.674,1.113-7.922,19.721-12.217,15.628
			c-2.266-2.16,9.064-17.668,9.845-18.371c-0.213-2.003,3.105-4.537,4.859-5.033c0.562-0.586,1.217-1.049,1.944-1.406
			c-0.402-0.695-0.785-1.401-1.15-2.114c-13.754,8.351-13.304,20.038-22.735,31.336c26.503,35.203,50.008,72.283,75.555,108.124
			c0.112-0.322,0.251-0.652,0.438-0.996c5.778-3.214,8.686,3.656,9.501,9.357c-1.529-0.495-3.145-0.841-4.666-1.355
			c38.388,48.943,77.098,98.456,114.15,148.352c0.195-0.985-0.176-1.878-1.109-2.676c0.936,0.799,1.31,1.691,1.112,2.679
			c4.966,6.681,10.169,13.061,15.674,19.306c0.948-1.212,2.053-1.957,3.28-2.852c-6.574-9.04-97.425-140.385-91.324-143.053
			c0.708-0.311,86.227,132.825,93.053,141.857c0.33-0.221,0.649-0.453,0.961-0.7c-20.996-36.172-44.555-70.674-63.935-107.834
			C349.013,617.374,348.925,617.47,348.837,617.565z M224.168,442.481c-0.026,0.011-0.053,0.021-0.079,0.032
			c1.086-2.295,1.765-3.555,4.324-1.598C226.999,441.438,225.583,441.96,224.168,442.481z M244.943,505.212
			c0.512,0.051,0.506,0.211,0.046,0.466c0.006,0.061,0.013,0.125,0.018,0.186l-0.199-0.085c0.08-0.04,0.119-0.069,0.181-0.101
			C244.973,505.522,244.96,505.367,244.943,505.212z M244.872,505.881c1.534,2.458,2.136,3.398,3.382,3.587
			C247.008,509.279,246.403,508.339,244.872,505.881z M263.009,532.485c-0.402-1.081,0.375-1.364,0.788-0.29
			C263.533,532.294,263.272,532.389,263.009,532.485z M288.199,572.273c-0.27,0.421-1.736-0.336,0.716-1.435
			C288.684,571.323,288.483,571.826,288.199,572.273z M350.618,644.849c-3.598,2.524-90.211-111.828-85.16-114.938
			c0.884-0.551,39.607,54.716,39.245,54.138C309.988,592.335,351.734,644.074,350.618,644.849z"/>
		<path style="fill:#2887ca;" d="M503.167,778.244c-0.674-0.28-1.401-0.432-2.184-0.44c0.802-2.064,2.082-3.693,3.845-4.889
			c6.987-22.019,11.738-45.393,14.007-68.403c-0.727,0.115-13.217,2.23-16.076-0.338c-1.795,32.254-3.447,64.515-5.802,96.76
			C498.882,793.347,500.877,785.729,503.167,778.244z"/>
		<path style="fill:#2887ca;" d="M482.932,187.787c-0.783,3.401-3.568,2.12-5.786,1.363c-0.639-0.219-1.249-0.522-1.856-0.836
			c-2.449,0.184-4.449,0.352-5.826,0.471c-0.016,0.008-0.034,0.013-0.034,0.013s0.019-0.005,0.034-0.013
			c-11.631,1.02-24.961,8.18-34.227,15.114c-2.609,36.02,2.119,71.617,4.676,107.456c2.437,0.368,2.439,2.269,0.213,2.961
			c0.309,4.819,0.685,9.634,1.124,14.443c1.698-5.741,6.196-7.418,8.986-2.25c-0.753,2.57-5.429,8.207-8.678,5.39
			c12.731,123.294,15.027,246.914,31.885,369.95c3.59-0.879,8.753-2.266,12.476-1.305c-1.819-65.831-9.365-131.432-9.621-197.361
			c-0.486-0.562-0.85-2.229,0.008-2.732c0.006-0.626,0.333-14.472,1.343-14.414c4.143,0.218,9.583,190.606,10.27,214.31
			c0.987-0.157,2.023-0.373,2.984-0.639c8.532-128.245,4.836-257.107,7.821-385.512c-1.476,0.679-3.271-0.186-5.025,0.218
			c1.002,51.654,0.525,103.401,0.248,155.06c1.007,0.839,1.925,1.72,2.99,2.49c-0.599,0.953-1.198,1.915-1.797,2.876
			c-0.435,0.144-0.874,0.256-1.314,0.362c-0.095,2.33-0.245,13.644-1.435,13.466c-1.625-0.237-1.143-14.06-1.15-15.303
			c-0.626-0.527-1.255-1.049-1.877-1.576c-1.891,0.439-3.779,0.884-5.67,1.329c1.891-0.444,3.779-0.889,5.67-1.337
			c0.779-1.076,1.357-1.843,1.852-2.343c-0.304-51.526,1.388-102.982-0.373-154.516c-9.836,4.532-14.009-5.741-0.104-3.06
			c-0.069-1.997-0.136-3.981-0.202-5.941c-5.619-0.953-41.86,10.359-43.932,4.335c-1.374-3.978,39.831-7.469,43.838-7.03
			c-0.125-3.635-3.863-111.04-0.295-110.825c3.027,0.17,3.225,107.523,3.315,111.346c1.826-0.021,3.669-0.069,5.493-0.064
			c0.059-2.501,1.251-32.186,2.202-32.029c1.656,0.258,0.887,29.02,0.897,31.994c1.453-0.109,13.742,2.564,12.943,4.857
			c-1.243,3.584-10.63-1.244-12.928-1.595c0.626,130.74-1.129,262.731-8.635,393.282c4.931,0.913,4.947,5.416-0.228,3.69
			c-1.763,28.647-1.006,55.8,1.782,84.367c0.833-28.237,22.692-303.622,25.795-302.948c2.221,0.471-10.303,110.092-10.687,114.542
			c4.975,0.285,8.822,2.62,11.208,7.587c-6.156-1.43-7.706,2.594-11.484-4.396c-3.066,32.713-5.071,65.462-6.903,98.221
			c2.875-2.448,13.688,1.334,16.167,0.56c1.491-16.166,5.885-31.536,8.34-47.521c-0.151-0.035-0.306-0.053-0.461-0.053
			c0.184-0.091,0.357-0.202,0.52-0.33c13.439-87.826,20.775-176.855,31.965-265.082c-1.393-0.977-1.758-2.53-1.098-4.657
			c-0.788-2.213-0.176-3.006,1.843-2.383c2.003-21.665,3.528-43.441,4.091-65.197c-1.231-0.309-2.309-0.975-3.303-1.835
			c0.176-1.717,1.033-2.762,2.57-3.129c-9.041-3.93-20.518,2.668-29.605,1.177c-0.455,0.495-2.487-0.104-2.852-0.637
			c-1.516-0.149-4.594-0.567-4.924-2.484c-0.23-1.31,3.052-1.643,3.933-1.832c-0.013-0.189-0.023-0.378-0.037-0.565
			c11.072,2.266,23.516-2.319,34.433,1.896c0.53-18.626-0.708-37.184-1.049-55.794c-0.264,0.17-0.522,0.341-0.813,0.524
			c-2.673-1.401-2.082-4.132-2.564-6.42c1.073-0.2,2.146-0.4,3.219-0.599c-0.412-7.347-1.134-14.678-1.502-22.024h-0.011
			l0.009-0.013c-0.024-0.487-0.808-12.987-0.077-13.01c0.895-0.037,2.104,9.682,2.284,10.912c0.464,0.189,0.942,0.932,1.681,2.314
			c-0.461-0.024-0.922-0.048-1.38-0.072c0.865,7.086,1.849,14.134,2.45,21.252c1.563-0.293,3.126-0.581,4.69-0.874
			c-1.454,2.961-1.889,3.824-4.429,5.637c0.698,19.532,1.622,39.064,0.895,58.612c1.188,0.101,2.421,0.216,3.613,0.232
			c3.673-34.052,1.18-68.539-3.432-102.298C544.88,185.758,512.566,185.949,482.932,187.787z M491.307,638.783
			c-4.173-1.869-4.439-5.699-4.764-9.496C490.912,630.983,492.502,634.147,491.307,638.783z M487.051,494.412
			c-0.276,0.152,3.393-0.903,3.238,0.333C489.887,498.116,482.344,496.952,487.051,494.412z M485.177,522.83
			c0.655,0.101,0.762,0.399,0.319,0.895C484.844,523.623,484.737,523.325,485.177,522.83z M482.162,365.014
			c2.862-3.784,5.829-4.804,8.899-3.06c2.218,2.953-7.115,9.141-8.199,10.081C479.169,370.652,478.935,368.311,482.162,365.014z
			 M478.405,438.061c1.302-0.099,2.231,0.516,2.444,1.933C478.652,442.522,476.94,438.168,478.405,438.061z M472.653,652.153
			c-1.252-1.039-1.893-2.253-1.925-3.637c1.254,0.543,2.508,1.092,3.76,1.643C473.876,650.824,473.263,651.49,472.653,652.153z
			 M467.066,411.292c3.063-1.864,5.315-1.491,6.753,1.118C474.104,416.641,465.304,413.03,467.066,411.292z M470.328,529.655
			c-1.472-0.072-2.929-0.397-4.3-0.969L470.328,529.655z M467.714,621.557c-1.63,1.177-2.708,0.964-3.235-0.642
			C466.217,619.488,467.293,619.701,467.714,621.557z M475.689,278.296c-0.519,4.037-10.619,20.861-16.137,13.234
			C453.193,282.746,471.469,279.077,475.689,278.296c0.003-0.024,0.011-0.042,0.015-0.066c0,0,0.026,0.008,0.042,0.011l0.008,0.045
			C475.731,278.291,475.71,278.291,475.689,278.296z M475.611,241.123c1.809-2.607,2.999-5.512,3.542-8.742
			c-3.895,0.256-7.265-0.772-10.105-3.078c3.374,1.028,6.742,2.056,10.11,3.078C478.612,235.611,477.423,238.516,475.611,241.123z
			 M541.658,493.371c-0.316,0.344-0.634,0.684-0.951,1.023c-0.929-1.529-0.67-2.088,0.951-1.025h-0.003L541.658,493.371z
			 M548.834,319.768c0.52-2.839,6.615-0.067,8.33,0.98C571.58,324.169,547.566,327.045,548.834,319.768z M548.882,460.738
			c-8.681-2.018-7.493,0.477-13.705-7.576C541.37,452.741,546.108,454.965,548.882,460.738z M530.069,389.717
			c9.328,3.267,9.382,9.834-0.051,11.197C530.035,397.181,530.051,393.448,530.069,389.717z M526.39,435.257
			c-0.602,0.953-1.198,1.915-1.798,2.876c-0.53,0.173-1.065,0.32-1.608,0.442v0.002c-1.39-1.166-2.78-2.327-4.17-3.499
			c-1.888,0.439-3.778,0.884-5.667,1.329c1.889-0.445,3.779-0.89,5.667-1.337c2.774-3.816,3.025-3.869,5.792-1.198
			C525.193,434.344,525.787,434.805,526.39,435.257z M538.688,199.173c-2.173-0.57-2.495-1.459-0.966-2.668
			C539.916,197.115,540.238,198.004,538.688,199.173z M543.072,305.532c0.008,0.546,0.02,1.086,0.034,1.63
			C541.698,306.65,541.524,306.11,543.072,305.532z M559.946,224.771c-7.552-0.397-12.952-5.23-16.61-11.479
			c-0.64-2.511-0.498-4.974,0.423-7.389c1.821-5.4,11.224,0.666,10.38,5.699c1.015,2.591,3.081,3.701,5.693,4.045
			c0.04,3.041,0.077,6.085,0.117,9.126l0.103,0.106L559.946,224.771z"/>
		<path style="fill:#2887ca;" d="M502.368,702.004c-0.38,0.951-0.186,1.653,0.391,2.17c0.054-0.973,0.107-1.946,0.162-2.919
			C502.68,701.461,502.487,701.705,502.368,702.004z"/>
		<path style="fill:#2887ca;" d="M584.154,721.879c-16.61,24.669-36.263,44.802-57.129,65.743
			c22.669-18.904,43.037-41.029,62.574-63.075c-0.099-0.066-0.187-0.149-0.261-0.242
			C587.941,723.402,585.925,722.438,584.154,721.879z"/>
		<path style="fill:#2887ca;" d="M474.36,804.086c1.422,1.949,2.956,3.813,4.596,5.589c1.579,0.66,3.166,1.262,4.777,1.768
			c-1.371-0.921-2.671-1.893-3.976-2.905C477.907,807.114,476.109,805.628,474.36,804.086z"/>
		<path style="fill:#2887ca;" d="M634.282,341.36c0.822,2.064,7.237,3.84,9.12,4.535c0.729-2.588,1.422-5.187,2.037-7.802
			c-3.001-1.613-5.163-3.589-8.426-4.892C636.151,335.934,635.155,338.628,634.282,341.36z"/>
		<path style="fill:#2887ca;" d="M131.251,499.338c0.186,0.154,0.394,0.378,0.629,0.695c8.588,11.346,14.856,24.024,23.923,35.28
			c4.154-7.946,4.207-18.219,12.018-24.296c-10.798-13.985-24.347-28.442-32.061-44.352
			C130.743,477.639,131.758,487.715,131.251,499.338z"/>
		<path style="fill:#2887ca;" d="M325.103,674.523c3.097,2.421,6.521,4.415,9.687,6.761c-2.151-2.146-4.364-4.229-6.635-6.244
			C327.388,675.139,326.451,674.939,325.103,674.523z"/>
		<path style="fill:#2887ca;" d="M155.009,538.929c-2.374-2.525-4.911-5.266-7.427-8.173c3.681,4.826,6.777,8.871,7.316,9.504
			C154.93,539.821,154.964,539.377,155.009,538.929z"/>
		<path style="fill:#2887ca;" d="M137.929,518.08c2.863,4.463,6.234,8.725,9.653,12.677
			C144.369,526.542,140.718,521.74,137.929,518.08z"/>
		<path style="fill:#2887ca;" d="M257.126,612.067c0.001,0.042,0.003,0.084,0.004,0.126c0.647,0.604,1.304,1.2,1.956,1.801
			C258.931,613.09,258.423,612.37,257.126,612.067z"/>
		<path style="fill:#2887ca;" d="M271.332,632.429c1.103-1.225,16.73,13.053,19.114,14.915c-0.221-2.977-0.996-5.826-2.322-8.55
			c-10.088-7.926-19.727-16.221-29.038-24.8c0.094,0.547,0.06,1.162-0.008,1.793c-1.884-0.549-1.914-2.072-1.948-3.594
			c-32.14-29.915-60.138-63.405-87.158-98.387c-5.442,7.807-11.059,14.776-11.189,24.9c7.773,8.675,15.29,17.633,23.816,25.609
			c5.731,5.36,25.502,17.298,27.888,26.008c1.183,1.007,17.985,13.873,16.957,15.037c-1.98,2.258-26.394-19.09-28.048-20.352
			c-1.68,1.417-6.178,6.196-8.888,4.167c-1.593-3.278-0.352-6.018,3.723-8.218c-12.23-9.485-23.944-20.235-34.932-31.136
			c0.672,2.49,1.505,10.606-1.789,11.629c-2.705,0.844-3.113-15.106-2.916-16.496c-1.539-1.669-26.362-29.8-21.141-32.702
			c0.02-0.01,1.871,2.411,4.476,5.829c-3.138-4.89-5.666-10.018-6.951-15.24c-1.731,14.766-6.577,26.751,3.459,40.257
			c7.069,9.517,19.963,17.535,28.942,24.833c30.563,24.847,62.172,48.469,94.517,70.938c0.019-0.032,0.037-0.064,0.054-0.096v0.003
			l0.002-0.003c27.313,23.928,63.845,42.738,95.514,60.215C345.133,691.92,267.245,636.946,271.332,632.429z M185.632,540.026
			c-6.151-2.205-5.592,0.122-11.032-6.934c6.196-0.421,10.931,1.803,13.706,7.573C187.413,540.458,186.489,540.333,185.632,540.026z
			 M247.636,609.758c0.655,0.101,0.762,0.399,0.319,0.895C247.303,610.549,247.196,610.251,247.636,609.758z M250.64,628.347
			c-5.161,6.159-0.978-20.307,1.678-2.761C251.881,626.329,251.394,627.45,250.64,628.347z"/>
		<path style="fill:#2887ca;" d="M323.178,670.596c-7.014-6.204-13.535-12.787-20.179-19.38c-0.993,0.407-2.186,1.046-3.733,1.936
			l-0.535,0.029l0.533-0.029c1.549-0.889,2.739-1.529,3.735-1.936c-1.44-1.491-2.953-2.908-4.534-4.245
			c-0.18,1.56-0.357,3.121-0.533,4.681c-0.855-0.293-1.713-0.458-2.572-0.524c8.947,7.488,18.344,14.491,27.531,21.673
			c-0.086-0.29-0.117-0.618-0.075-0.988C322.863,671.4,322.994,670.974,323.178,670.596z"/>
		<path style="fill:#2887ca;" d="M465.408,708.317c0.367,1.409,0.77,2.863,1.145,4.271c2.631,9.725,5.24,19.46,8.023,29.142
			c-2.426-11.144-4.565-22.354-7.44-33.397C466.558,708.294,465.985,708.387,465.408,708.317z"/>
		<path style="fill:#2887ca;" d="M784.549,327.881c-7.025,18.27-10.798,37.639-17.279,56.127c0.873,0.562,1.616,1.334,2.175,2.253
			c6.668-16.022,11.927-32.431,18.228-48.576c-1.398-0.468-2.202-0.668-2.202-0.668S785.727,333.21,784.549,327.881z"/>
		<path style="fill:#2887ca;" d="M765.174,390.857c-0.714,2.407-1.742,4.109-2.882,6.311c0.56,0.727,1.106,1.462,1.641,2.202
			c1.286-2.979,2.549-5.967,3.792-8.966c-0.734-0.2-1.459-0.437-2.178-0.7C765.408,390.106,765.28,390.5,765.174,390.857z"/>
		<path style="fill:#2887ca;" d="M834.085,399.219c0,0,0.561-2.418,0.429-6.476c-6.596,14.518-14.925,28.383-22.429,42.44
			c0.242,0.455,0.484,0.911,0.727,1.366c-0.481-0.005-0.967-0.008-1.451-0.013c-0.93,1.747-1.88,3.483-2.854,5.208
			c0.634,0.764,1.147,1.595,1.545,2.498c0.58,0.207,2.556,1.699,3.179,2.197c2.648-4.575,22.94-37.479,21.162-40.688
			c0.873-1.749,1.792-3.478,2.75-5.182C835.257,399.604,834.085,399.219,834.085,399.219z"/>
		<path style="fill:#2887ca;" d="M800.683,445.73c-0.059,0.067-0.134,0.13-0.205,0.192c0.975,0.405,1.046,1.992,1.877,2.647
			c0.919-1.64,1.827-3.286,2.727-4.937c-1.027-0.993-2.372-1.063-3.695-1.198C801.503,443.595,801.551,444.75,800.683,445.73z"/>
		<path style="fill:#2887ca;" d="M807.773,438.668c0.392-0.714,0.775-1.433,1.15-2.154c-0.312-0.003-0.626-0.005-0.939-0.008
			C807.829,437.252,807.76,437.968,807.773,438.668z"/>
		<path style="fill:#2887ca;" d="M825.378,366.538c-8.647-12.758-21.924-23.156-36.446-28.415
			c-6.276,16.707-12.318,33.501-18.635,50.2c0.032,0.258-0.083,0.572-0.16,1.118c-0.104,0.059-0.218,0.136-0.338,0.221
			c-1.462,3.912-2.859,7.837-4.295,11.748c0.862,1.369,7.342,13.69,5.222,14.726c2.812,2.719-7.216,3.997-7.075,0.57
			c0.692-1.989,2.248-2.612,4.668-1.872c-0.948-1.14-1.686-2.516-2.42-3.797c-4.572,5.382-3.212-2.564-1.318-2.839
			c-0.293-0.671-0.581-1.345-0.857-2.018c-9.194,24.045-20.92,48.227-33.331,70.754c0,0.08,0,0.163,0,0.242
			c-0.056,0.027-0.117,0.051-0.175,0.074c-22.75,41.258-44.295,83.238-69.112,123.319c0.31,3.137,1.233,4.918-3.467,5.581
			c-3.435,5.536-6.729,11.163-9.999,16.794c4.477,2.612,1.704,11.77-4.492,7.648c-17.668,30.077-36.918,58.207-56.244,87.187
			c1.28,1.707,3.951,2.178,4.897,4.287c14.641-16.43,27.431-34.167,39.517-52.556c-0.08,0-0.151,0.011-0.234,0.008
			c-0.165-1.092-0.33-2.181-0.495-3.27c1.067-0.44,2.111-0.647,3.1-0.354c2.338-3.651,34.116-57.395,36.465-55.762
			c7.174,4.894-70.757,107.28-76.362,113.423c0.145,0.687,0.484,0.964,1.089,1.254c45.498-48.546,81.866-106.226,128.39-153.504
			c-0.43-0.509-0.68-1.127-0.826-1.827c-2.577,2.841-20.621,23.865-22.035,22.512c-1.499-1.422,18.653-24.152,21.372-27.403
			c-0.546-2.66-1.531-5.177-3.235-7.445c1.891-0.445,3.778-0.889,5.669-1.329c0.89,0.751,1.781,1.496,2.674,2.245
			c26.674-34.537,50.964-70.12,74.029-107.088c-1.485-2.152-3.31-3.177-4.815-5.035c-0.077,0.011-0.143,0.029-0.224,0.037
			c0.006-0.061,0.014-0.125,0.018-0.189c-1.222-0.543-2.617-1.241-3.638-2.152c0.44,0.69,0.936,1.371,1.55,2.032
			c0.038,0.485,0.078,0.969,0.115,1.454c-0.04-0.485-0.077-0.972-0.117-1.456c-2.253-2.418-5.941-4.319-3.55-8.319
			c-0.077-1.305-0.016-2.631,0.176-3.97l-0.66,0.229l0.12-0.711l0.54,0.482c-0.191,1.34-0.253,2.666-0.176,3.97
			c1.113-1.853,5.001,2.825,5.898,3.829c0.013-1.033,0.114-2.048,0.349-3.025c-4.858-4.777-6.335-12.486-11.773-17.543
			c-1.662-1.547-17.426-10.143-15.101-14.704c2.748-5.387,26.697,22.858,28.631,28.183c-0.008-0.221-0.057-0.437-0.174-0.647
			c4.003-3.454,4.003-3.454,8.702-0.482c1.334-0.066,2.668-0.13,4.003-0.197c0.016,0.029,0.031,0.059,0.048,0.088
			c7.839-15.069,15.603-30.157,23.155-45.369c-0.767-4.774-2.529-10.694-6.247-17.157
			C825.383,371.879,824.581,367.794,825.378,366.538z M760.893,475.082c-2.475-1.483-2.482-2.865-0.024-4.143
			C763.442,472.758,763.451,474.14,760.893,475.082z M760.887,457.737c0.154-0.373,0.879-0.508,1.277-0.719
			C766.153,458.618,759.166,461.862,760.887,457.737z M764.62,436.932c-2.621-0.085-3.814-1.488-3.576-4.213
			C761.611,427.495,770.379,435.832,764.62,436.932z M767.607,442.487l0.12-0.719l0.546,0.487L767.607,442.487z M781.206,437.936
			c-1.177,0.637-3.08-4.287-0.977-5.552C782.373,432.77,783.507,436.711,781.206,437.936z M779.403,417.235
			c1.739,1.169,3.491,2.344,5.241,3.518l0.002-0.003l0.009-0.002l0.002,0.013c0,0-0.008-0.005-0.013-0.008
			c-2.735,7.171-5.667,3.997-6.372-1.358C778.157,418.516,778.273,417.565,779.403,417.235z M778.948,400.278
			c-1.909-2.24-1.965-4.814-0.825-7.461c0.187-0.434,0.988-0.602,1.528-0.903c2.216,0.697,3.212,2.428,3.715,4.436
			C792.566,392.021,774.72,410.985,778.948,400.278z M809.148,388.104c-6.337,0.176-11.942,2.285-18.36,2.9l0.128-0.208
			c-0.205-4.127,0-8.066,4.258-10.388c2.407-1.313,13.698,4.769,14.21,7.563L809.148,388.104z M812.431,428.126
			c0.136-0.381,0.271-0.762,0.405-1.142c-0.088-1.635-0.086-3.281-0.219-4.908c-0.043-0.541-0.102-1.081-0.184-1.616
			c0.285,2.162,0.418,4.335,0.404,6.521C812.702,427.362,812.566,427.743,812.431,428.126z M812.466,397.522l0.304-0.626
			l0.421,0.581L812.466,397.522z M816.542,364.469c0.017-0.543,0.027-1.084,0.038-1.63
			C818.127,363.417,817.951,363.957,816.542,364.469z"/>
		<path style="fill:#2887ca;" d="M806.873,444.66c-0.21,0.373-0.409,0.74-0.623,1.113c-0.742,1.305-1.442,2.58-2.223,3.928
			c4.231,2.034-0.767,8.231-2.186,3.563c-22.552,34.945-43.614,70.176-69.108,103.22c0.626,0.333,1.254,0.666,1.88,0.999
			c17.428-24.517,35.642-48.629,54.175-72.312c-5.224-0.695,0.371-11.376,4.586-6.351c6.113-9.349,11.972-18.85,17.596-28.5
			c-1.086-1.566-1.981-2.884-2.098-4.902C808.205,445.163,807.539,444.913,806.873,444.66z"/>
		<path style="fill:#2887ca;" d="M732.697,368.013c4.365,2.426,8.694,5.057,12.582,8.204c10.492-22.591,18.363-46.16,26.338-69.729
			c-3.69-3.054-8.052-5.53-12.339-7.608C753.247,322.135,742.599,346.151,732.697,368.013z M754.794,322.523l0.176-0.12
			L754.794,322.523z"/>
		<path style="fill:#2887ca;" d="M297.039,364.08c3.446,9.799,6.822,19.609,10.271,29.395c-2.847-9.914-6.414-19.585-9.597-29.39
			C297.486,364.077,297.263,364.077,297.039,364.08z"/>
		<path style="fill:#2887ca;" d="M759.513,347.994c1.132-0.837,2.181-1.744,2.711-3.182c-0.219-0.607-0.717-1.257-0.831-1.88
			C760.769,344.62,760.144,346.308,759.513,347.994z"/>
		<path style="fill:#2887ca;" d="M774.286,308.927c-0.2-0.2-0.384-0.408-0.594-0.607c-3.1,11.533-7.925,22.283-11.89,33.507
			c1.078-0.956,2.351,0.197,2.858,1.089c9.399,4.269-0.27,12.8-6.498,8.644c-3.416,8.888-7.368,17.407-11.282,26.072
			c5.129,5.211,8.643,10.758,13.034,16.462c0.999-1.829,1.486-3.763,2.216-5.704c-1.001-0.373-2.639-0.796-2.495-2.301
			c0.938-2.112,2.373-3.145,4.309-3.099c0.484-1.252,0.975-2.503,1.428-3.768c-2.89,0.287-4.559-5.64-5.124-7.19
			c1.263-0.013,2.524-0.024,3.787-0.034v0.003c1.252,0.016,2.506,0.035,3.76,0.056c0,0.061,0,0.125,0.003,0.189
			c5.544-16.246,10.052-32.684,15.449-48.956c-0.972-2.793-2.372-5.781-4.34-8.731C776.427,313.507,774.888,311.63,774.286,308.927z
			 M766.018,359.364l0.227,0.66l-0.711-0.117L766.018,359.364z M764.042,370.217c-2.21-0.445-3.155-2-2.836-4.668
			c2.804-5.163,6.047,3.243,6.571,4.594C766.534,370.167,765.288,370.191,764.042,370.217z"/>
		<path style="fill:#2887ca;" d="M422.843,724.305c20.202,29.701,35.479,61.972,62.507,85.874
			c-10.806-30.452-37.532-58.476-54.324-86.47C429.169,724.116,424.613,724.409,422.843,724.305z M430.631,731.883
			c-0.7-1.813-1.397-3.624-2.098-5.435c0.7,1.811,1.397,3.622,2.098,5.432c2.259,0.86,4.52,1.723,6.777,2.583
			C435.15,733.604,432.89,732.741,430.631,731.883z"/>
		<path style="fill:#2887ca;" d="M414.401,729.154c1.686,2.429,3.387,4.846,5.107,7.251c10.606,14.824,21.915,28.466,33.842,42.246
			c-12.579-16.573-27.153-32.636-38.28-50.192C414.856,728.702,414.636,728.933,414.401,729.154z"/>
		<path style="fill:#2887ca;" d="M434.87,720.721c-0.426,0.424-1.656,1.758-1.707,2.607c13.299,21.479,27.499,42.818,41.954,63.541
			c-12.5-22.922-25.457-45.846-36.569-69.505C438.412,718.269,435.579,719.416,434.87,720.721z"/>
		<path style="fill:#2887ca;" d="M837.775,494.953c-0.053,0.868-0.071,1.675-0.026,2.54c1.058-1.704,2.141-3.395,3.249-5.067
			c-0.054-0.013-0.109-0.027-0.163-0.04C839.815,493.246,838.796,494.098,837.775,494.953z"/>
		<path style="fill:#2887ca;" d="M838.231,401.152c-8.258,15.655-14.755,32.58-22.049,48.714c8.284,13.844,15.9,24.229,20.408,39.94
			c1.459-1.07,2.099-0.378,4.244,2.572c0.057,0.013,0.112,0.027,0.168,0.04c9.043-13.162,16.502-28.146,24.024-42.294
			C864.193,431.247,855.332,410.613,838.231,401.152z M824.148,457.372c-6.66-1.96,3.214-9.57,5.434-10.348
			c0.016,3.73,0.032,7.464,0.048,11.197C827.798,457.955,825.904,457.891,824.148,457.372z"/>
		<path style="fill:#2887ca;" d="M574.661,660.813c-1.102-0.642-2.071-1.456-3.078-2.237c-7.527,17.676-15.469,34.952-21.867,53.105
			c0.344,0.49,1.075,1.079,1.624,1.363c0.307-0.636,0.612-1.27,0.916-1.906c-1.291-1.651-0.141-2.112,1.26-2.594
			c0.176-0.365,0.354-0.73,0.532-1.092c-0.069-0.258-0.138-0.517-0.202-0.777c0.187,0.043,0.333,0.104,0.506,0.154
			c7.064-14.473,13.677-29.083,20.515-43.657C574.632,662.397,574.565,661.609,574.661,660.813z"/>
		<path style="fill:#2887ca;" d="M590.354,604.424c-0.006-0.005-0.011-0.01-0.011-0.01l0.005,0.005
			c0.459-0.818,0.473-1.122,0.268-1.154c-0.247,0.628-0.494,1.253-0.739,1.874C590.054,604.9,590.214,604.66,590.354,604.424z"/>
		<path style="fill:#2887ca;" d="M698.32,369.308c-0.139-0.184-0.369-0.407-0.677-0.657
			C697.856,368.883,698.084,369.1,698.32,369.308z"/>
		<path style="fill:#2887ca;" d="M698.424,369.408c-0.036-0.031-0.067-0.069-0.104-0.1c0.034,0.046,0.07,0.094,0.094,0.135
			C698.419,369.427,698.424,369.408,698.424,369.408z"/>
		<path style="fill:#2887ca;" d="M663.137,245.661c-3.686,24.98-7.112,50.136-11.36,75.02c-0.858,5.027-1.811,10.039-2.796,15.053
			c1.938,1.196,2.873,4.308-0.682,3.462c-14.57,72.682-30.457,145.415-49.32,217.133c0.91,0.266,3.209,1.145,2.521,2.639
			c-1.693,0.884-1.113,1.03-3.198-0.082c-3.976,14.853-8.013,29.701-12.281,44.472c1.201,0.138,2.413,0.234,3.616,0.365
			c0.398-0.271,0.787-0.487,0.979-0.457c11.104-28.112,24.815-62.23,25.892-61.787c4.551,1.832-40.121,105.805-41.716,109.557
			c1.339,1.283,2.212,2.886,2.622,4.804c0.275,0.173,0.509,0.354,0.74,0.538c13.938-28.202,26.461-56.793,39.69-85.296
			c-2.688,0.86-5.121,2.49-7.243,5.11c-0.358-4.577,4.668-10.627,9.644-10.409c28.612-63.147,55.198-126.341,76.857-192.331
			c-3.65-1.433-12.869-5.504-13.352-9.429c-0.418-3.434,10.733,2.056,13.892,4.629c-3.535-3.863-4.071-10.956-8.67-14.9
			c-5.211-4.471-13.487-6.484-20.094-7.964c-0.41,2.229-0.787,4.471-1.288,6.681c0.623,0.964,0.935,2.135,1.038,3.446
			c-0.642-0.245-1.183-0.554-1.635-0.924c-0.515,2.034-1.007,4.077-1.473,6.125c1.161,0.65,2.207,1.433,3.142,2.346
			c-1.214,0.013-2.428,0.027-3.643,0.043c-2.101,10.215-35.546,151.84-42.451,148.858c-0.367-0.157,30.082-104.884,30.9-108.076
			c-0.057,0.128-0.157,0.271-0.216,0.399c-0.655-0.104-0.762-0.402-0.322-0.895c0.41-0.005,0.599,0.117,0.569,0.367
			c4.402-17.066,7.98-34.199,11.954-51.369c-0.275-0.727-0.432-1.531-0.485-2.402c0.328,0.128,0.626,0.277,0.903,0.439
			c0.399-2.096,0.774-4.194,1.127-6.298c-2.831-3.004-5.88-7.014,0.852-4.923c0.232-1.345,10.832-66.27,11.854-66.009
			c4.034,1.014-9.394,64.417-9.922,67.282c11.272,4.508,26.669,10.473,30.231,23.694c8.58-25.853,19.218-50.607,29.712-75.707
			c-4.694-1.097-7.728-1.606-7.728-1.606C721.429,260.81,683.641,250.427,663.137,245.661z M593.767,616.322
			c-3.365-0.985-0.812-4.434,0.325-3.771C595.938,614.04,595.828,615.297,593.767,616.322z M676.754,388.133
			c2.298,0,3.14,1.374,3.254,3.438c-0.674,0.162-1.344,0.325-2.013,0.49c-0.56-0.221-1.126-0.41-1.704-0.57
			C676.442,390.373,676.597,389.251,676.754,388.133z M654.128,427.325c0,0,0.017,0,0.024,0l0.002-0.005
			c3.089,0.032,6.181,0.064,9.268,0.093c0.612,0.612,1.225,1.225,1.837,1.837h-0.003c0.006,1.765,1.473,14.728-1.041,16.318
			c-3.425,2.165-9.077,2.146-10.185-3.188c0.634-2.508,1.265-5.02,1.896-7.53c-0.561-1.752-1.798-2.967-3.707-3.643
			C652.856,429.913,653.491,428.619,654.128,427.325z M646.832,490.029c0.111-0.027,0.335,0.399,0.506,0.618
			c-1.619,0.721-1.126,0.905-1.901-0.032C645.9,490.407,646.35,490.154,646.832,490.029z M635.382,490.184
			c0.237-0.192,0.722-0.352,1.036-0.533c1.022,1.113,0.813,1.845-0.629,2.2C635.097,491.225,634.961,490.671,635.382,490.184z
			 M633.784,409.641l4.303,0.972C636.612,410.541,635.155,410.216,633.784,409.641z M646.342,383.91
			c-0.998,2.389-3.914-1.499-1.198-3.006C646.525,381.543,646.84,382.704,646.342,383.91z M684.455,262.586
			c1.678,0.384,1.835,1.315,0.469,2.791C683.209,264.993,683.055,264.061,684.455,262.586z M683.88,279.276
			c0.962-3.374,2.197-3.669,3.704-0.884C686.642,281.068,685.405,281.364,683.88,279.276z M700.504,328.608
			c-1.115,1.832-8.556,10.457-8.025,8.199c0.998-4.638,24.63-62.282,22.179-64.806c-0.046-0.027-0.086-0.068-0.139-0.079
			c0.054,0.012,0.1,0.039,0.139,0.079c2.83,1.651-6.157,32.189-7.192,35.776C705.579,314.306,704.112,322.686,700.504,328.608z
			 M712.729,308.735c-1.417-0.28,2.79-15.184,3.038-16.086c-0.202-1.422,1.766-12.241,3.9-11.466
			C720.092,281.335,718.385,309.856,712.729,308.735z"/>
		<path style="fill:#2887ca;" d="M714.519,271.922c0.053,0.012,0.093,0.052,0.139,0.079
			C714.618,271.96,714.572,271.933,714.519,271.922z"/>
		<path style="fill:#2887ca;" d="M584.753,607.795c-3.137,10.457-5.168,21.204-8.342,31.656c0.559-1.368,6.401-16.41,13.466-34.313
			C588.718,606.706,586.805,608.209,584.753,607.795z"/>
		<path style="fill:#2887ca;" d="M450.328,787.675c0.144,0.096,0.285,0.187,0.429,0.282c-1.909-2.266-3.826-4.527-5.752-6.78
			C446.746,783.372,448.499,785.558,450.328,787.675z"/>
		<path style="fill:#2887ca;" d="M549.767,487.888c0.896-7.268,1.786-14.538,2.672-21.81c-3.377,25.604-6.763,51.201-9.556,76.834
			C545.471,524.563,547.333,506.232,549.767,487.888z"/>
		<path style="fill:#2887ca;" d="M552.438,466.079c3.943-29.895,7.873-59.799,10.842-89.781
			C559.641,406.228,556.079,436.165,552.438,466.079z"/>
		<path style="fill:#2887ca;" d="M567.799,312.469c-0.796,21.331-2.417,42.6-4.519,63.829c2.568-21.125,5.176-42.246,7.882-63.355
			C570.057,312.855,568.896,312.645,567.799,312.469z"/>
		<path style="fill:#2887ca;" d="M646.308,227.996c-0.202,17.548-0.597,35.331-2.037,52.823c-1.235,16.579-3.56,33.24-6.604,49.598
			c3.249,1.164,5.701,2.109,8.614,3.859c5.976-29.475,11.317-59.144,15.484-88.926c-1.214-0.266-1.885-0.389-1.885-0.389
			S657.052,235.859,646.308,227.996z"/>
		<path style="fill:#2887ca;" d="M640.295,290.9c2.932-21.649,3.265-42.922,3.265-64.776c-20.39-12.845-50.336-14.715-73.858-17.21
			c0.54,3.416,1.064,6.79,1.48,10.028c3.909,30.04,5.286,61.235,3.42,91.463c1.296,0.277,9.226,2.61,8.308,4.7
			c-1.076,2.455-6.895-0.045-8.551-0.916c-2.449,36.933-6.987,73.473-10.1,110.324c8.71-17.141,8.827,15.122-0.185,2.311
			c-5.347,69.891-13.447,141.335-25.06,210.518c1.984,2.133,4.219,3.962,6.705,5.486c-0.136,0.937-0.237,1.88-0.365,2.817
			c3.396-13.343,6.315-26.823,9.365-40.249c-0.514-0.983-0.535-2.082-0.389-3.219c-0.045,0.005-0.093,0.008-0.141,0.013
			l-0.227-0.482l0.381,0.338c-0.008,0.043-0.006,0.085-0.014,0.128c0.397-0.045,0.77-0.053,1.129-0.032
			c0.94-4.135,19.95-97.321,21.887-96.826c4.098,1.012-18.195,95.22-19.139,99.161c0.23,0.836,0.029,1.672-0.601,2.503
			c-0.447,1.867-0.898,3.752-1.358,5.672c0.692,0.748,1.214,1.616,1.563,2.604c-0.725-0.024-1.445-0.048-2.17-0.072
			c-3.323,13.852-6.676,27.646-10.684,41.316c0.903,1.015,0.666,1.853-0.716,2.516c-4.213,15.191-7.778,30.575-12.486,45.625
			c0.248,0.021,0.507,0.069,0.748,0.128c-0.282-0.996,2.301-2.75,2.839-0.083c-0.219,0.2-0.432,0.474-0.652,0.687
			c2.503,1.158,4.609,1.646,6.907,3.065c10.747-27.669,19.036-55.69,28.498-83.802c-1.351,0.035-2.698,0.067-4.048,0.101
			c0.12-1.236-3.802-19.636,1.579-18.621c8.383,1.603,0.938,8.455,0.687,10.337c1.138,1.185,2.248,2.397,3.326,3.635
			c30.663-88.441,44.909-181.379,70.871-271.082c-1.93,0.538-7.41-3.528-9.402-4.359c-0.218,0.527-2.309,5.35-3.225,5.073
			c-0.967-0.29,0.692-5.866,0.836-6.607c-8.409-2.833-7.495-10.319,0.797-3.992c0.517-2.575,1.445-4.982,2.09-7.514
			c-3.645-2.873-35.844-8.803-33.054-16.403c0.679-1.859,30.881,11.312,33.647,13.511c2.304-12.342,4.461-24.618,6.01-37.091
			c-0.804-0.032-1.664-0.003-2.26-0.261c-1.431,0.45-14.161,4.865-14.806,0.29c-0.378-2.671,5.246-1.481,6.289-2.631
			c4.103-0.085,5.126,0.855,8.517,2.341C638.694,290.934,639.475,290.78,640.295,290.9z M551.961,567.736
			c-0.344-0.719-0.134-0.783,0.631-0.192C552.381,567.608,552.171,567.675,551.961,567.736z M562.721,497.432
			c-0.343,0.701-2.562-0.77-0.279-0.796C562.543,496.905,562.809,497.253,562.721,497.432z M547.852,664.889
			c-0.498-0.479-0.444-0.881,0.16-1.209c0.122,0.221,0.245,0.442,0.392,0.711C548.225,664.551,548.038,664.719,547.852,664.889z
			 M601.753,230.456c-0.503,1.15-1.007,2.301-1.507,3.451c-0.701,0.596-1.401,1.193-2.102,1.79
			c1.739,2.154,2.722,20.538-0.301,17.564c-0.862-0.788-1.776-17.924-1.531-18.003c-1.222-1.057-2.444-2.112-3.669-3.169
			C595.586,227.09,596.201,226.981,601.753,230.456z M597.612,297.946c-1.518-0.788-1.789-2.189-1.815-3.709
			C597.13,295.115,597.565,296.436,597.612,297.946z M593.583,308.536c0.959-0.658,1.917-1.315,2.876-1.973
			c4.136,0.557,0.908,5.597-0.852,6.348c-1.244-0.027-2.49-0.051-3.736-0.074C592.433,311.398,592.896,309.912,593.583,308.536z
			 M580.41,295.661c-0.107,0.903-0.378,9.357-2.168,9.04c-0.514-0.091,0.277-53.14-0.34-58.969c-1.305,0.277-2.613,0.24-3.918-0.232
			c0.64-3.353,1.59-5.842,3.047-7.972c-0.006-0.053-0.014-0.112-0.019-0.165c-0.179-2.101-4.144-25.06-0.157-25.563
			c4.143-0.533,4.636,71.737,3.906,80.599c1.03,0.136,1.936,0.565,2.524,1.757C581.81,295.107,580.961,295.65,580.41,295.661z
			 M574.4,339.012c2.617,0,7.544,2.772,6.231,6.189C578.592,350.502,570.207,340.455,574.4,339.012z M574.313,496.529
			c-4.892,0.796,0.612-8.215,3.11-2.599C577.223,495.749,575.807,496.284,574.313,496.529z M567.769,510.602
			c-2.162-0.389,11.773-132.319,12.638-143.064c-2.819,1.632-4.758-2.404-5.402-4.093c-0.005,0.003-0.008,0.005-0.008,0.005
			l-0.003-0.01l0.008,0.003l0.003,0.002c1.749-1.174,3.501-2.349,5.243-3.518c0.375,0.112,0.631,0.296,0.812,0.517
			c1.747-15.223,1.135-30.599,2.689-45.838c0.182-1.88,1.931-33.592,3.4-33.349C595.591,282.632,569.384,510.895,567.769,510.602z
			 M591.857,314.748c1.252-0.021,2.506-0.04,3.758-0.056v-0.003c1.262,0.013,2.524,0.021,3.789,0.035
			C596.821,321.789,591.746,324.209,591.857,314.748z M596.297,355.401c-3.022-0.783-3.645-2.282-1.875-4.489
			C597.074,350.332,597.185,355.476,596.297,355.401z M597.484,399.711c1.678,0.386,1.835,1.318,0.469,2.791
			C596.24,402.118,596.084,401.189,597.484,399.711z M600.616,415.518c-0.943,2.679-2.179,2.972-3.707,0.884
			C597.873,413.028,599.108,412.735,600.616,415.518z M618.366,298.515c-2.697-0.237-4.737-1.763-6.119-4.58
			c-0.5,1.409-1.004,2.817-1.505,4.223v0.002h0.003c-0.727,2.887-1.454,5.773-2.184,8.66c-3.643-1.944-4.932-4.94-3.866-8.99
			c1.252,0.024,2.506,0.045,3.757,0.069c0.479-1.917-0.066-3.707-0.676-5.486l-0.003-0.003v0.003
			c-3.914-1.004-7.259-2.926-10.033-5.765c0.051-0.421,0.082-0.842,0.101-1.257c6.394-0.354,3.646,1.885,10.756,3.049
			C611.568,288.397,625.873,294.391,618.366,298.515z M638.639,269.765c-2.631,0.075-5.371-1.006-7.848,0.73
			c-6.407,0.921-9.24,0.991-8.414-6.412c0.892-3.251,5.256-3.701,8.175-3.166c0.449,4.596,2.731,1.057,2.926-0.341
			c0.655,0.085,1.308,0.17,1.966,0.256c0.228,1.638,1.104,2.844,2.471,3.725C638.602,266.231,638.963,267.949,638.639,269.765z"/>
		<path style="fill:#2887ca;" d="M540.063,644.886c1.411-1.292,1.9-2.937,1.845-4.793c-0.887-1.15-1.837-2.117-2.895-2.751
			c-2.023,12.057-4.966,23.926-7.009,35.975c2.181-0.381,3.986,0.224,5.414,1.811c1.308-5.568,2.932-11.062,4.369-16.597
			c-0.561-0.192-1.115-0.402-1.675-0.594c-0.412,0.205-0.82,0.41-1.23,0.615c0.384-0.232,0.769-0.466,1.156-0.7v-0.003
			c0.432-1.443,1.257-2.133,2.481-2.069c0.629-2.253,1.294-4.498,1.926-6.75C541.635,652.718,540.196,646.202,540.063,644.886z"/>
		<path style="fill:#2887ca;" d="M531.816,674.425c-0.072,0.426-0.145,0.849-0.213,1.273
			C531.726,675.288,531.809,674.864,531.816,674.425z"/>
		<path style="fill:#2887ca;" d="M530.157,684.2c-1.055,6.212-2.056,12.438-3.331,18.613c1.155,0.871,1.818,0.668,3.131,0.868
			c2.305-7.413,4.45-14.978,6.125-22.56c-0.274,0.698-0.549,1.395-0.811,2.098C533.606,683.071,531.726,684.557,530.157,684.2z"/>
		<path style="fill:#2887ca;" d="M714.151,629.551c0.375-0.317,0.759-0.623,1.147-0.924c-0.026-0.133-0.056-0.266-0.074-0.405
			C714.838,628.643,714.497,629.093,714.151,629.551z"/>
		<path style="fill:#2887ca;" d="M795.887,483.513c0.021-0.087,0.016-0.2,0.002-0.32c-0.244,0.435-0.489,0.873-0.735,1.312
			C795.437,484.241,795.685,483.916,795.887,483.513z"/>
		<path style="fill:#2887ca;" d="M811.973,451.977c-5.283,10.042-10.608,19.913-16.803,29.424c0.398,0.711,0.667,1.351,0.719,1.792
			c8.098-14.459,14.825-26.574,16.609-30.143C812.313,452.699,812.138,452.339,811.973,451.977z"/>
		<path style="fill:#2887ca;" d="M802.664,512.317c-3.068,0.429-6.148,0.762-9.217,1.135
			C796.521,513.079,799.599,512.746,802.664,512.317z"/>
		<path style="fill:#2887ca;" d="M833.26,492.564c0.242-0.184,0.481-0.37,0.719-0.559c-3.954-14.334-8.556-26.783-20.109-37.242
			c-1.684,3.105-3.292,6.223-4.85,9.395c0.578-0.117,1.191-0.186,1.809-0.242c0.162,0.338,0.274,0.676,0.365,1.015
			c9.418-1.124,20.224,34.321,19.084,41.54c-1.102,7.006-5.246-14.246-6.263-16.813c-2.933-7.395-9.675-12.71-13.032-19.686
			c-0.227,1.243-0.426,2.49-0.248,3.738c-2.489-0.841-3.895-1.627-4.603-2.761c-2.165,5.544-41.479,81.493-46.775,77.678
			c-0.229-0.163,20.109-36.118,35.798-64.12c-0.634,0.592-1.466,0.845-2.505,0.742c-17.478,26.354-36.553,51.007-55.049,76.599
			c0.046,0.088,0.094,0.176,0.139,0.261c-0.139,0.027-0.267,0.067-0.399,0.098c-0.921,1.281-1.843,2.562-2.74,3.861
			c2.202,3.419-2.008,13.08-6.05,8.84c-28.173,40.811-60.995,83.48-94.459,120.004c2-2.026,55.521-61.996,58.117-59.536
			c2.085,1.962-43.091,48.179-44.704,49.83c18.595-16.858,40.084-30.812,58.233-48.048c-5.225,4.01,7.951-10.579,9.157-11.929
			c-0.46-3.19-1.475-6.207-3.483-8.883c1.888-0.445,3.778-0.889,5.666-1.329c1.388,1.172,2.777,2.336,4.168,3.499v-0.003
			c0.372-0.082,0.737-0.194,1.104-0.303c2.094-2.074,25.699-31.23,29.946-26.636c1.087,1.167-25.017,24.368-25.47,24.767
			c0.522,0.277,1.044,0.554,1.563,0.831c0.15,0.274,0.293,0.549,0.439,0.82c32.114-24.775,64.366-47.153,90.867-78.543
			c-0.842-2.807-0.024-5.727,2.799-3.536c1.331-1.744,2.65-3.499,3.954-5.267c-1.883-1.622-2.95-3.483-3.835-5.84
			c-1.188,1.787-48.711,63.815-54.127,56.492c1.779,2.391,62.957-73.412,65.83-78.407c-0.242-2.905-0.042-5.56,0.109-8.46
			C834.037,493.805,833.648,493.182,833.26,492.564z M783.462,560.814c-0.417,0.837-0.591,1.834-0.527,2.989
			c-0.944,0.723-1.969,1.224-3.055,1.552c-0.362,0.109-0.732,0.199-1.107,0.272c0.376-0.073,0.745-0.163,1.107-0.272
			c1.086-0.328,2.11-0.83,3.055-1.555C782.871,562.648,783.045,561.651,783.462,560.814c0.139-0.279,0.305-0.541,0.498-0.784
			C783.767,560.273,783.601,560.535,783.462,560.814z M787.352,552.409c-1.813,2.258-3.523,1.869-5.126-1.172
			c0.655-1.472,1.866-1.337,3.054-1.121C786.761,550.175,787.453,550.936,787.352,552.409z M787.219,521
			c0.464-0.208,0.914-0.461,1.396-0.583c0.112-0.029,0.336,0.4,0.506,0.618C787.501,521.754,787.994,521.938,787.219,521z
			 M789.85,503.263c1.358-0.487,2.786-0.783,4.19-1.148l0.053,0.059C790.337,510.522,790.229,503.127,789.85,503.263z
			 M793.447,513.451c3.068-0.373,6.148-0.706,9.217-1.135C799.599,512.746,796.521,513.079,793.447,513.451z M806.751,479.732
			c0.575-2.242,1.979-3.64,4.284-4.072c0.109,1.3,0.219,2.596,0.328,3.896h0.002C810.908,480.291,805.385,485.044,806.751,479.732z
			 M812.526,528.683c-1.976,0-3.669,0.865-5.358,1.758c0.059-2.415,0.117-4.828,0.176-7.24c0.589-0.155,1.188-0.266,1.795-0.338
			c1.701,1.702,2.862,3.638,3.483,5.813C812.591,528.675,812.562,528.683,812.526,528.683z M810.767,518.045
			c2.774-5.773,7.512-7.996,13.708-7.576C818.012,518.852,819.128,516.101,810.767,518.045z"/>
		<path style="fill:#2887ca;" d="M712.438,490.759c-10.622,18.994-19.843,38.662-30.372,57.717
			c13.006-22.219,26.674-43.702,39.082-66.371c-1.461,0.637-2.981,0.958-4.551,1.081
			C715.017,485.603,713.629,488.125,712.438,490.759z"/>
		<path style="fill:#2887ca;" d="M756.828,404.629c-1.025-0.413,1.449-6.551,1.779-7.552c-4.085-6.074-8.796-10.287-13.304-15.927
			c-1.047,2.543-2.034,5.107-2.964,7.693c2.33,1.933,6.729,4.918,7.626,8.031c1.146,0.759,1.997,2.154,1.929,3.84
			c-6.642,11.708-15.618,0.586-6.296-3.778c-1.024-2.048-2.753-3.898-4.391-5.573c-2.777,5.936-51.06,104.407-56.108,101.087
			c-1.018-0.663,51.587-97.154,53.971-101.992c-17.301-8.124-4.247-15.873,1.472-3.18c1.076-2.548,2.021-5.137,3.156-7.661
			c-3.867-2.969-8.332-5.251-12.713-7.373c-6.75,16.826-13.612,33.839-23.428,49.121c0.117-0.029,0.232-0.056,0.325-0.117
			c-0.094,0.061-0.208,0.088-0.325,0.117c-0.404,0.634-4.727,7.24-5.893,6.553c-0.865-0.506,2.128-5.653,2.429-6.292
			c0.013-0.615,0.188-1.297,0.173-1.899c0.184,0.117,0.364,0.234,0.546,0.349c7.706-16.406,16.403-32.249,23.635-48.969
			c-3.219-1.31-7.387-2.562-10.744-3.494c-0.338,0.645-2.791,5.155-4.037,4.66c-0.895-0.357,0.946-5.017,1.108-5.557
			c-0.82-0.306-3.57-1.531-3.608-2.636c-0.051-1.294,4.119-0.993,4.809-1.025c10.292-22.871,14.46-48.373,19.847-72.658
			c-1.313-0.357-2.567-0.679-3.747-0.972c-4.716,12.355-8.808,24.783-12.758,37.402c0.722,0.738,0.144,3.254-1.001,3.209
			c-25.523,82.074-54.031,161.501-90.68,239.383c0.514,0.437,0.852,1.031,0.839,1.901c-0.347,1.784-1.241,2.46-2.685,2.026
			c-21.691,45.484-46.461,89.727-68.866,134.87c0.072,0.072,0.125,0.152,0.191,0.226c4.171-1.022,8.716-0.825,12.75,0.314
			c4.77-8.758,75.34-137.857,74.695-138.19c7.235,3.696-68.129,131.057-72.259,138.316c2.58,1.313,5.198,2.141,7.933,3.198
			c25.699-35.535,46.413-74.168,70.917-110.505c-3.627-2.434-5.56,3.904-4.711-3.944c0.362-3.355,9.115-8.502,12.303-7.547
			c4.084-6.521,7.277-13.477,10.912-20.245c-0.842,1.27-5.459,8.67-7.083,7.664c-0.279-0.171,9.808-19.07,21.142-40.004
			c-0.419-0.073-0.892-0.543-0.439-0.921c0.162-0.136,0.527-0.027,0.805-0.032c0.024,0.066,0.037,0.12,0.054,0.178
			c12.383-22.863,26.114-47.896,29.399-53.506c-0.623-0.029-1.252-0.074-1.883-0.133c-0.011-4.383-0.019-8.766-0.026-13.149
			l0.016,0.016c3.273,0.019,6.548-0.184,9.811-0.628c0.682-1.153,2.926-5.861,4.178-5.067c1.052,0.666-1.209,4.929-1.579,5.693
			c1.089,0.306,2.181,0.602,3.278,0.887c12.1-22.496,24.979-44.6,35.141-68.057c-0.524-0.871-1.092-1.718-1.696-2.538
			C760.41,400.92,758.019,405.106,756.828,404.629z M588.295,655.503c1.736-1.427,2.814-1.212,3.235,0.644
			C589.898,657.321,588.822,657.109,588.295,655.503z M598.18,677.059c1.425-2.695,2.836-5.414,6.699-3.8
			C604.008,676.92,601.38,677.495,598.18,677.059z M663.296,533.281c-0.316,0.344-0.634,0.684-0.95,1.023
			c-0.85-0.637-0.927-1.222-0.229-1.752c0.416,0.194,0.791,0.474,1.18,0.727l-0.002,0.003H663.296z"/>
		<path style="fill:#2887ca;" d="M684.134,536.724c-0.14,0.259-0.279,0.517-0.42,0.776
			C684.037,537.556,684.321,537.37,684.134,536.724z"/>
		<path style="fill:#2887ca;" d="M737.656,294.316c-6.751,21.473-6.048,49.675-17.822,69.076c3.416,1.281,7.216,1.883,10.504,3.427
			c10.801-22.251,17.554-46.048,26.778-68.954c-6.287-2.854-12.881-5.075-18.643-6.729
			C738.223,292.202,737.951,293.262,737.656,294.316z"/>
		<path style="fill:#2887ca;" d="M382.441,713.67c2.194,2.354,4.378,4.721,6.62,7.024c-2.444-3.211-5.03-6.306-7.751-9.288
			C381.888,712.056,382.264,712.81,382.441,713.67z"/>
		<path style="fill:#2887ca;" d="M493.527,306.448c0.04,1.752,0.08,3.526,0.117,5.312c1.931-0.588,3.11-1.369,5.155-1.028
			c0.032-1.371,0.061-2.719,0.091-4.031c-0.692-0.08-1.42-0.074-2.173-0.09C495.655,306.539,494.593,306.483,493.527,306.448z"/>
		<path style="fill:#2887ca;" d="M412.603,730.912c-0.942,0.783-1.573,1.654-2.221,2.687c18.57,20.895,38.531,62.236,64.246,74.158
			c-20.692-25.774-42.501-50.115-61.716-77.153C412.809,730.706,412.702,730.813,412.603,730.912z"/>
		<path style="fill:#2887ca;" d="M854.906,488.378c1.922,1.236,3.024,3.326,3.565,6.005c-2.381,0.82-4.307,0.101-6.13-1.427
			c-6.774,11.953-13.644,24.125-21.116,35.655c1.243,1.582,2.324,3.387,3.424,5.067c10.479-14.273,20.126-33.957,33.365-45.849
			c-0.106-7.107-1.821-13.333-3.323-17.455C861.203,476.238,858.199,482.403,854.906,488.378z"/>
		<path style="fill:#2887ca;" d="M828.477,532.642c-1.452,2.051-2.922,4.093-4.439,6.098c0.572,1.936,2.229,3.864,2.982,5.834
			c1.861-2.447,3.726-4.673,5.269-7.379c-0.847-0.956-1.669-1.933-2.468-2.929C829.34,533.753,828.89,533.212,828.477,532.642z"/>
		<path style="fill:#2887ca;" d="M843.091,492.91c1.137,0.269,2.274,0.538,3.411,0.804c-1.137-0.266-2.277-0.533-3.414-0.802
			c-1.874,2.695-3.541,5.539-5.293,8.313c0.066,0.937-0.618,8.279-2.73,4.836c-2.889,5.634-6.726,10.673-10.436,15.772
			c1.982,1.507,2.959,3.131,4.695,4.82c7.788-11.094,15.673-22.6,22.179-34.502c-1.26-1.497-1.14-3.166-0.57-4.99
			c1.1,0.069,2.054,0.293,2.887,0.639c3.294-6.353,6.404-12.915,10.297-18.936c-0.938-2.351-1.672-3.712-1.672-3.712
			s1.901-2.804,2.477-9.152C857.696,468.242,851.199,481.252,843.091,492.91z"/>
		<path style="fill:#2887ca;" d="M515.187,801.621c-1.478,1.475-6.38,7.629-8.606,7.76c-0.327,0.282-0.654,0.562-0.982,0.839
			c3.723-1.523,7.345-3.488,10.987-5.403c-0.125-0.405-0.227-0.825-0.267-1.283C515.94,802.896,515.565,802.257,515.187,801.621z"/>
		<path style="fill:#2887ca;" d="M515.187,801.618c0.379,0.639,0.754,1.278,1.132,1.915c0.642,0.059,1.227,0.24,1.784,0.493
			c19.982-10.366,39.575-34.13,54.324-51.023c-1.297,1.002-15.687,12.763-16.613,11.272c-0.18-0.288,0.018-0.783,0.492-1.426
			C542.985,776.151,529.313,789.1,515.187,801.618z"/>
		<path style="fill:#2887ca;" d="M591.962,725.551c-10.503,11.485-21.218,22.745-32.159,33.776
			c6.848-6.018,20.145-15.387,22.011-17.93c-1.105,0.7-2.309,0.977-3.603,0.833c-0.581-1.302,6.153-4.953,6.963-5.438
			c2.501-3.406,5.097-6.79,7.885-9.972C592.238,726.425,592.229,726.254,591.962,725.551z"/>
		<path style="fill:#2887ca;" d="M556.306,762.849c1.17-1.169,2.332-2.347,3.497-3.521
			C558.211,760.727,556.976,761.94,556.306,762.849z"/>
		<path style="fill:#2887ca;" d="M721.671,634.381c-23.553,19.05-46.069,38.401-67.945,59.325c1.782-1.124,3.574-2.24,5.268-3.496
			c-1.11-0.863,60.207-51.454,64.345-54.838C722.712,635.46,722.185,634.933,721.671,634.381z"/>
		<path style="fill:#2887ca;" d="M828.325,548.249c2.003,5.587,2.956,19.055-1.115,23.728c-1.724,1.976-0.097-17.239-2.029-21.406
			c-1.483,0.65-1.172-0.714-0.751-1.491c-1.195-2.167-2.264-4.218-3.582-6.266c-27.046,34.017-59.469,59.314-93.113,86.654
			c-0.051,0.951-0.184,1.891-0.399,2.817c1.997-1.542,13.964-8.569,15.194-6.612c0.298,0.471-59.017,43.843-66.681,51.72
			c2.338-1.784,44.27-36.044,46.549-32.977c1.51,2.01-45.05,35.807-47.078,37.288c66.472-40.182,131.365-90.03,165.367-117.958
			c-3.893-6.055-1.819-16.228-6.128-23.305C832.66,543.363,830.685,545.664,828.325,548.249z M807.4,565.885
			c-0.694,0.146-1.393,0.29-2.087,0.439C805.88,565.587,806.589,565.494,807.4,565.885z M740.207,622.713
			c1.001-1.182,2.061-0.487,2.492,0.514C742.132,623.773,738.833,624.316,740.207,622.713z M758.151,616.274
			c-0.279-0.602-0.059-1.204,0.57-1.718c0.432-0.349,4.085-2.144,4.434-0.666C763.783,616.644,759.88,617.177,758.151,616.274z
			 M810.511,573.56c1.129-0.024,1.281,0.524,0.447,1.648c-0.708,4.716-0.58,9.293-5.541,11.698
			c-1.704-4.018-2.21-8.167-1.954-12.401c-3.83,4.284-8.122,8.122-11.802,12.593c1.155,3.512,3.959,4.857,7.432,5.728l0.003,0.005
			c-3.593,4.54-7.547,2.545-12.734,0.618c0.117-0.378,0.243-0.751,0.362-1.129c-1.1,1.047-13.128,8.367-11.538,5.771
			c2.091-3.624,38.275-35.299,37.943-35.639c2.013,2.069-6.122,7.919-7.143,9.136C807.681,571.597,809.297,571.874,810.511,573.56z
			 M818.941,551.7c-0.316-0.338-0.634-0.679-0.948-1.023v-0.003C819.615,549.612,819.874,550.172,818.941,551.7z"/>
		<path style="fill:#2887ca;" d="M867.887,491.965c-10.022,15.101-21.07,29.637-31.187,44.813c4.343,7.088,6.05,16.52,6.934,24.541
			c13.309-11.011,21.175-18.107,21.511-19.034c0.95-2.626,3.896-7.709,5.566-13.09c-0.142-0.032-0.282-0.067-0.421-0.099
			c-1.391,1.172-2.78,2.333-4.17,3.496c-0.543-0.123-1.079-0.269-1.605-0.445c-0.603-0.961-1.199-1.922-1.801-2.876
			c2.692-3.52,4.833-3.96,7.576-0.184c0.141,0.032,0.282,0.067,0.423,0.099C874.336,517.491,866.958,504.153,867.887,491.965z"/>
		<path style="fill:#2887ca;" d="M530.227,709.425c-5.962,18.533-9.853,37.679-16.076,56.135c1.124-0.258,2.139-0.919,3.076-2.077
			c1.963-0.538,3.022,0.163,3.174,2.106c9.115-17.447,13.514-35.98,20.149-54.362C538.076,711.502,533.044,709.878,530.227,709.425z
			"/>
		<path style="fill:#2887ca;" d="M526.072,706.528c-4.063,20.017-9.623,39.287-16.02,58.676c0.2-0.018,0.396-0.003,0.57,0.056
			c0.264,0.085,0.519,0.149,0.772,0.21c6.634-18.935,11.035-38.542,17.231-57.613c-0.179-0.139-0.344-0.293-0.49-0.466
			C527.369,707.33,526.69,707,526.072,706.528z"/>
		<path style="fill:#2887ca;" d="M509.872,780.946c-0.216,0.008-0.432,0.011-0.645,0.005c-0.557,1.725-9.45,30.537-10.776,29.898
			c-2.259-1.081,7.378-28.402,8.047-30.465c-0.469-0.208-0.918-0.487-1.345-0.844c-3.624,10.91-6.202,22.096-8.91,33.254
			c0.618-0.075,1.23-0.17,1.84-0.285c7.387-13.261,12.75-27.712,19.455-41.375C514.468,773.842,510.316,776.34,509.872,780.946z"/>
		<path style="fill:#2887ca;" d="M158.881,543.041c0.014,0.628,0.032,1.241,0.056,1.827c11.086,12.185,23.582,24.663,36.796,34.67
			c0.053-0.027,0.111-0.045,0.167-0.064c-0.304-0.335-0.604-0.668-0.899-1.007C184.114,565.875,170.326,555.223,158.881,543.041z"/>
		<path style="fill:#2887ca;" d="M637.083,747.765c-1.968,1.159-6.771,0.168-9.154,0.264c-1.018-2.388-4.308,10.066-4.064,10.783
			c0.043-0.023,0.085-0.035,0.128-0.059c-0.068,0.108-0.108,0.117-0.128,0.059c-2.468,1.329-4.912,0.744-7.342-1.779
			c-1.063,0.703-14.795,6.116-15.671,5.738c-1.888-0.815,11.035-10.262,14.832-8.359c-0.141-1.193-0.234-2.386-0.285-3.576
			c-3.741,1.15-28.34,11.86-28.825,10.465c-0.932-2.684,25.46-12.081,28.77-13.445c0.014-2.434,0.149-4.865,0.333-7.296
			c-1.864,0.277-12.433,7.331-9.703,2.048c0.82-1.587,9.813-6.62,11.562-5.454c3.025-1.555,5.435-1.039,7.232,1.547
			c-0.484,2.255-1.251,4.532-0.266,6.385c1.405-0.205,13.974-2.303,12.892,2.317c0.102-0.093,0.211-0.17,0.32-0.237
			c-0.461-1.398-0.834-2.82-1.121-4.269c-1.079,0.37-1.561-0.25-2.805-2.087c0.815,0.109,1.63,0.221,2.444,0.33
			c-0.862-4.42-1.723-10.22-2.468-15.817c-0.349,0.623-11.74,7.858-11.61,3.126c-0.019-1.241,10.05-5.746,11.317-5.365
			c-0.535-4.13-0.993-8.004-1.332-10.976c-33.25,28.937-71.058,55.174-101.616,86.726c16.383-4.359,34.263,6.199,50.826,6.495
			c17.343,0.306,35.136-4.335,50.17-12.992c0,0,1.79-2.474,2.455-7.419c-14.443,4.86-30.388,10.14-45.401,12.545
			c0.282-0.045-47.654,1.129-44.925-7.893c-0.814,2.719,49.636,4.745,51.172,4.468c13.435-2.418,25.654-10.292,39.367-11.493
			c0.035-1.334,0.064-2.668,0.088-4.002c-12.659,3.462-26.996,0.989-40.088,4.361c-1.796,0.468-41.243,10.507-35.983,1.223
			c-0.537,0.943,9.55-0.148,19.565-1.443c-0.067-0.019-0.125-0.031-0.193-0.051c2.375-5.464,2.745-5.634,9.357-4.295
			c-1.682,1.32-2.531,2.659-3.474,3.59c7.21-0.982,13.215-1.879,13.478-1.918c0.018-0.09,0.034-0.178,0.064-0.279
			c0.075,0.08,0.146,0.16,0.222,0.24c11.793-1.811,25.308-5.853,37.229-3.414c0.677-4.902,2.714-9.746,3.872-14.55
			c-15.088,2.836-29.661,4.905-44.472,9.29c-5.539,1.643-25.801,3.861-26.688,4.341c20.783-11.581,48.89-11.149,71.775-16.222
			c0.418-1.819,0.655-3.06,0.725-4.101C636.623,758.232,636.082,749.293,637.083,747.765z M596.502,772.188h0.002
			c0.038,1.75,0.075,3.496,0.115,5.246c-1.85,0.285-3.701,0.575-5.553,0.863C591.142,774.715,592.835,772.574,596.502,772.188z"/>
		<path style="fill:#2887ca;" d="M596.938,780.009L596.938,780.009C596.956,780.006,596.952,780.007,596.938,780.009z"/>
		<path style="fill:#2887ca;" d="M583.461,781.927c-1.844,0.251-3.766,0.507-5.69,0.756
			C580.976,783.597,582.295,783.079,583.461,781.927z"/>
		<path style="fill:#2887ca;" d="M623.993,758.752c-0.043,0.024-0.085,0.037-0.128,0.059
			C623.885,758.869,623.925,758.86,623.993,758.752z"/>
		<path style="fill:#2887ca;" d="M594.164,782.909c0.008-0.002,0.017-0.003,0.024-0.006
			C594.279,782.879,594.276,782.88,594.164,782.909z"/>
		<path style="fill:#2887ca;" d="M528.068,798.769c0.095-0.094,0.188-0.189,0.283-0.282
			C528.237,798.571,528.146,798.667,528.068,798.769z"/>
		<path style="fill:#2887ca;" d="M527.827,799.658c-0.032-0.347,0.053-0.642,0.241-0.889c-0.421,0.417-0.842,0.837-1.261,1.257
			C527.148,799.9,527.486,799.775,527.827,799.658z"/>
		<path style="fill:#2887ca;" d="M570.643,711.774c-9.117,15.559-19.705,30.527-29.6,45.588c2.063,1.126,2.769,2.362,1.744,3.147
			c-1.365,1.049-2.7,0.906-3.943,0.28c-7.584,12.015-16.371,23.55-24.954,34.886c0.541,0.604,0.797,1.315,0.89,2.09
			c17.068-19.702,35.496-37.341,49.558-59.626c0.107-0.999,0.618-1.768,1.428-2.325c1.547-2.54,3.041-5.113,4.532-7.682
			c-2.181-1.201-3.02-3.592-3.044-6.827c1.75,1.268,3.339,2.42,4.897,3.55c1.962-3.446,3.981-6.854,6.212-10.119
			C577.297,713.729,572.231,711.156,570.643,711.774z"/>
		<path style="fill:#2887ca;" d="M512.489,797.485c-1.848,2.351-8.252,8.159-8.361,8.673c-0.911,1.515-1.816,3.03-2.702,4.559
			c3.943-3.898,8.363-7.408,12.081-11.525c-0.362-0.623-0.631-1.281-0.809-1.97C512.628,797.307,512.557,797.403,512.489,797.485z"
			/>
		<path style="fill:#2887ca;" d="M814.455,447.477c0.114,0.098,0.236,0.213,0.359,0.338c0.674-1.505,1.315-3.02,1.928-4.548
			c-0.791,1.382-1.566,2.775-2.33,4.173L814.455,447.477z"/>
	</g>
</g>
</svg>
